<svg width="111" height="22" viewBox="0 0 111 22" fill="none" xmlns="http://www.w3.org/2000/svg">
<path d="M0.545105 10.4256L2.09681 8.87392L13.3466 20.1237L11.7949 21.6754L0.545105 10.4256Z" fill="#25201F"/>
<path d="M3.64851 7.32222L5.20021 5.77052L16.45 17.0203L14.8983 18.572L3.64851 7.32222Z" fill="#25201F"/>
<path d="M6.75191 4.21881L8.30361 2.66711L19.5534 13.9169L18.0017 15.4686L6.75191 4.21881Z" fill="#25201F"/>
<path d="M8.30361 21.6754L6.75191 20.1237L18.0017 8.87392L19.5534 10.4256L8.30361 21.6754Z" fill="#25201F"/>
<path d="M5.20021 18.572L3.64851 17.0203L14.8983 5.77052L16.45 7.32222L5.20021 18.572Z" fill="#25201F"/>
<path d="M2.09681 15.4686L0.545105 13.9169L11.7949 2.66711L13.3466 4.21881L2.09681 15.4686Z" fill="#25201F"/>
<path d="M26.2071 10.9359C26.3338 11.1027 26.4472 11.2261 26.5473 11.3061C26.6473 11.3861 26.7674 11.4362 26.9074 11.4562V11.6663C26.5072 11.6396 26.2371 11.6262 26.0971 11.6262C25.917 11.6262 25.5468 11.6396 24.9866 11.6663V11.4562C25.0799 11.4562 25.1533 11.4395 25.2067 11.4061C25.2667 11.3661 25.2967 11.3194 25.2967 11.2661C25.2967 11.2127 25.2767 11.1627 25.2367 11.116L24.0862 9.43528C23.9728 9.26854 23.8627 9.15849 23.756 9.10514C23.656 9.04511 23.5159 9.00843 23.3358 8.99509V10.7359C23.3358 11.0093 23.3825 11.1994 23.4759 11.3061C23.576 11.4061 23.7494 11.4562 23.9961 11.4562V11.6663C23.4359 11.6396 23.0657 11.6262 22.8856 11.6262C22.6922 11.6262 22.2887 11.6396 21.6751 11.6663V11.4562C21.9552 11.4562 22.152 11.4061 22.2654 11.3061C22.3788 11.1994 22.4355 11.0093 22.4355 10.7359V5.02335C22.4355 4.71655 22.3788 4.49311 22.2654 4.35305C22.152 4.21299 21.9552 4.14296 21.6751 4.14296V3.93287C21.8885 3.95288 22.0953 3.96288 22.2954 3.96288C22.7156 3.96288 23.0624 3.9162 23.3358 3.82282V8.785C23.5293 8.75832 23.6893 8.71497 23.8161 8.65494C23.9494 8.58824 24.0762 8.49487 24.1962 8.37482L24.9365 7.60448C25.15 7.38438 25.2567 7.20097 25.2567 7.05424C25.2567 6.94085 25.1867 6.85748 25.0466 6.80413C24.9132 6.7441 24.7365 6.71409 24.5164 6.71409V6.514C24.9832 6.54068 25.3601 6.55402 25.6469 6.55402C25.9603 6.55402 26.2505 6.54068 26.5172 6.514V6.71409C26.1904 6.74077 25.8903 6.8975 25.6168 7.18429L24.3963 8.46486L26.2071 10.9359ZM28.5085 11.7363C28.0883 11.7363 27.7748 11.6329 27.5681 11.4262C27.368 11.2127 27.268 10.9193 27.268 10.5458C27.268 10.2456 27.348 9.99886 27.5081 9.80544C27.6748 9.61203 27.8682 9.45863 28.0883 9.34524C28.3151 9.23186 28.6119 9.11181 28.9787 8.98508C29.3522 8.85836 29.629 8.74164 29.8091 8.63493C29.9892 8.52822 30.0792 8.38482 30.0792 8.20474V7.58447C30.0792 7.19763 29.9958 6.93419 29.8291 6.79412C29.669 6.64739 29.4422 6.57403 29.1488 6.57403C28.6819 6.57403 28.3518 6.69408 28.1584 6.93419C28.2917 6.96753 28.4018 7.03756 28.4885 7.14428C28.5819 7.25099 28.6286 7.38438 28.6286 7.54445C28.6286 7.71119 28.5752 7.84458 28.4685 7.94463C28.3618 8.038 28.225 8.08469 28.0583 8.08469C27.8716 8.08469 27.7315 8.028 27.6381 7.91461C27.5447 7.79456 27.4981 7.65117 27.4981 7.48443C27.4981 7.32436 27.5347 7.19096 27.6081 7.08425C27.6881 6.97754 27.8049 6.87082 27.9583 6.76411C28.1183 6.65073 28.3218 6.55735 28.5685 6.48399C28.8153 6.41062 29.0854 6.37394 29.3789 6.37394C29.8991 6.37394 30.2926 6.49733 30.5594 6.7441C30.7261 6.8975 30.8362 7.08425 30.8895 7.30435C30.9496 7.51777 30.9796 7.80123 30.9796 8.15472V10.9359C30.9796 11.1027 31.0029 11.2227 31.0496 11.2961C31.0963 11.3695 31.1763 11.4061 31.2897 11.4061C31.3698 11.4061 31.4431 11.3895 31.5098 11.3561C31.5832 11.3161 31.6599 11.2627 31.7399 11.1961L31.85 11.3661C31.6766 11.4995 31.5265 11.5962 31.3998 11.6563C31.2797 11.7096 31.1263 11.7363 30.9396 11.7363C30.6194 11.7363 30.396 11.6563 30.2693 11.4962C30.1426 11.3361 30.0792 11.1194 30.0792 10.8459C29.8791 11.1794 29.649 11.4128 29.3889 11.5462C29.1288 11.6729 28.8353 11.7363 28.5085 11.7363ZM28.9487 11.3361C29.3889 11.3361 29.7657 11.0827 30.0792 10.5758V8.61492C30.0192 8.7083 29.9358 8.785 29.8291 8.84502C29.7224 8.90505 29.559 8.98508 29.3389 9.08513C29.0854 9.19184 28.8787 9.29522 28.7186 9.39526C28.5652 9.48864 28.4318 9.6187 28.3184 9.78544C28.205 9.95217 28.1483 10.1656 28.1483 10.4257C28.1483 10.7258 28.2217 10.9526 28.3684 11.106C28.5152 11.2594 28.7086 11.3361 28.9487 11.3361ZM35.2619 6.37394C35.5287 6.37394 35.7455 6.45064 35.9122 6.60404C36.0856 6.75744 36.1723 6.94419 36.1723 7.16429C36.1723 7.3377 36.119 7.48776 36.0123 7.61448C35.9122 7.73454 35.7755 7.79456 35.6021 7.79456C35.4554 7.79456 35.3286 7.74788 35.2219 7.6545C35.1219 7.56113 35.0719 7.4344 35.0719 7.27433C35.0719 7.05424 35.1852 6.87416 35.412 6.7341C35.3653 6.6674 35.2953 6.63405 35.2019 6.63405C34.9418 6.63405 34.705 6.73743 34.4916 6.94419C34.2782 7.14428 34.1114 7.39105 33.9914 7.68451C33.8713 7.97798 33.8113 8.25476 33.8113 8.51488V10.6358C33.8113 10.9426 33.898 11.156 34.0714 11.2761C34.2515 11.3961 34.5183 11.4562 34.8718 11.4562V11.6663L34.6317 11.6563C33.9514 11.6362 33.5178 11.6262 33.3311 11.6262C33.1577 11.6262 32.7642 11.6396 32.1506 11.6663V11.4562C32.4307 11.4562 32.6274 11.4061 32.7408 11.3061C32.8542 11.1994 32.9109 11.0093 32.9109 10.7359V7.60448C32.9109 7.29768 32.8542 7.07425 32.7408 6.93419C32.6274 6.79412 32.4307 6.72409 32.1506 6.72409V6.514C32.364 6.53401 32.5708 6.54401 32.7708 6.54401C33.191 6.54401 33.5378 6.49733 33.8113 6.40395V7.6545C33.9314 7.32102 34.1214 7.02422 34.3815 6.76411C34.6483 6.504 34.9418 6.37394 35.2619 6.37394ZM39.717 6.37394C39.9838 6.37394 40.2006 6.45064 40.3673 6.60404C40.5407 6.75744 40.6274 6.94419 40.6274 7.16429C40.6274 7.3377 40.5741 7.48776 40.4673 7.61448C40.3673 7.73454 40.2306 7.79456 40.0572 7.79456C39.9104 7.79456 39.7837 7.74788 39.677 7.6545C39.577 7.56113 39.5269 7.4344 39.5269 7.27433C39.5269 7.05424 39.6403 6.87416 39.8671 6.7341C39.8204 6.6674 39.7504 6.63405 39.657 6.63405C39.3969 6.63405 39.1601 6.73743 38.9467 6.94419C38.7332 7.14428 38.5665 7.39105 38.4465 7.68451C38.3264 7.97798 38.2664 8.25476 38.2664 8.51488V10.6358C38.2664 10.9426 38.3531 11.156 38.5265 11.2761C38.7066 11.3961 38.9734 11.4562 39.3268 11.4562V11.6663L39.0867 11.6563C38.4064 11.6362 37.9729 11.6262 37.7862 11.6262C37.6128 11.6262 37.2193 11.6396 36.6056 11.6663V11.4562C36.8858 11.4562 37.0825 11.4061 37.1959 11.3061C37.3093 11.1994 37.366 11.0093 37.366 10.7359V7.60448C37.366 7.29768 37.3093 7.07425 37.1959 6.93419C37.0825 6.79412 36.8858 6.72409 36.6056 6.72409V6.514C36.8191 6.53401 37.0258 6.54401 37.2259 6.54401C37.6461 6.54401 37.9929 6.49733 38.2664 6.40395V7.6545C38.3864 7.32102 38.5765 7.02422 38.8366 6.76411C39.1034 6.504 39.3969 6.37394 39.717 6.37394ZM48.7441 10.7359C48.7441 11.0093 48.8008 11.1994 48.9142 11.3061C49.0276 11.4061 49.2243 11.4562 49.5044 11.4562V11.6663C48.8908 11.6396 48.4907 11.6262 48.3039 11.6262C48.1172 11.6262 47.7437 11.6396 47.1834 11.6663V11.4562C47.4302 11.4562 47.6003 11.4061 47.6936 11.3061C47.7937 11.1994 47.8437 11.0093 47.8437 10.7359V7.84458C47.8437 7.59114 47.827 7.38772 47.7937 7.23432C47.767 7.07425 47.697 6.94419 47.5836 6.84415C47.4769 6.7441 47.3101 6.69408 47.0834 6.69408C46.8299 6.69408 46.5998 6.77411 46.3931 6.93419C46.1863 7.09426 46.0229 7.31435 45.9028 7.59447C45.7895 7.86793 45.7328 8.17139 45.7328 8.50487V10.7359C45.7328 11.0093 45.7895 11.1994 45.9028 11.3061C46.0162 11.4061 46.213 11.4562 46.4931 11.4562V11.6663C45.8795 11.6396 45.4793 11.6262 45.2926 11.6262C45.1058 11.6262 44.7323 11.6396 44.1721 11.6663V11.4562C44.4189 11.4562 44.5889 11.4061 44.6823 11.3061C44.7824 11.1994 44.8324 11.0093 44.8324 10.7359V7.84458C44.8324 7.59114 44.8157 7.38772 44.7824 7.23432C44.7557 7.07425 44.6856 6.94419 44.5723 6.84415C44.4656 6.7441 44.2988 6.69408 44.072 6.69408C43.8186 6.69408 43.5885 6.77411 43.3817 6.93419C43.175 7.09426 43.0116 7.31435 42.8915 7.59447C42.7781 7.8746 42.7215 8.1814 42.7215 8.51488V10.7359C42.7215 11.0093 42.7681 11.1994 42.8615 11.3061C42.9616 11.4061 43.135 11.4562 43.3817 11.4562V11.6663C42.8215 11.6396 42.448 11.6262 42.2613 11.6262C42.0745 11.6262 41.6743 11.6396 41.0607 11.6663V11.4562C41.3408 11.4562 41.5376 11.4061 41.651 11.3061C41.7644 11.1994 41.8211 11.0093 41.8211 10.7359V7.60448C41.8211 7.29768 41.7644 7.07425 41.651 6.93419C41.5376 6.79412 41.3408 6.72409 41.0607 6.72409V6.514C41.2742 6.53401 41.4809 6.54401 41.681 6.54401C42.1012 6.54401 42.448 6.49733 42.7215 6.40395V7.58447C42.8815 7.17096 43.1083 6.86749 43.4018 6.67407C43.6952 6.47398 44.0154 6.37394 44.3622 6.37394C44.8157 6.37394 45.1625 6.50066 45.4026 6.75411C45.5694 6.92752 45.6727 7.1943 45.7128 7.55446C45.8795 7.13427 46.1096 6.83414 46.4031 6.65406C46.6965 6.46731 47.02 6.37394 47.3735 6.37394C47.827 6.37394 48.1738 6.50066 48.414 6.75411C48.534 6.8875 48.6174 7.05757 48.6641 7.26433C48.7174 7.47109 48.7441 7.73787 48.7441 8.06468V10.7359ZM51.2822 11.7363C50.862 11.7363 50.5485 11.6329 50.3417 11.4262C50.1417 11.2127 50.0416 10.9193 50.0416 10.5458C50.0416 10.2456 50.1217 9.99886 50.2817 9.80544C50.4485 9.61203 50.6419 9.45863 50.862 9.34524C51.0887 9.23186 51.3855 9.11181 51.7524 8.98508C52.1259 8.85836 52.4027 8.74164 52.5827 8.63493C52.7628 8.52822 52.8528 8.38482 52.8528 8.20474V7.58447C52.8528 7.19763 52.7695 6.93419 52.6027 6.79412C52.4427 6.64739 52.2159 6.57403 51.9224 6.57403C51.4556 6.57403 51.1254 6.69408 50.932 6.93419C51.0654 6.96753 51.1754 7.03756 51.2622 7.14428C51.3555 7.25099 51.4022 7.38438 51.4022 7.54445C51.4022 7.71119 51.3489 7.84458 51.2421 7.94463C51.1354 8.038 50.9987 8.08469 50.832 8.08469C50.6452 8.08469 50.5052 8.028 50.4118 7.91461C50.3184 7.79456 50.2717 7.65117 50.2717 7.48443C50.2717 7.32436 50.3084 7.19096 50.3818 7.08425C50.4618 6.97754 50.5785 6.87082 50.7319 6.76411C50.892 6.65073 51.0954 6.55735 51.3422 6.48399C51.589 6.41062 51.8591 6.37394 52.1525 6.37394C52.6728 6.37394 53.0663 6.49733 53.3331 6.7441C53.4998 6.8975 53.6098 7.08425 53.6632 7.30435C53.7232 7.51777 53.7532 7.80123 53.7532 8.15472V10.9359C53.7532 11.1027 53.7766 11.2227 53.8233 11.2961C53.87 11.3695 53.95 11.4061 54.0634 11.4061C54.1434 11.4061 54.2168 11.3895 54.2835 11.3561C54.3568 11.3161 54.4335 11.2627 54.5136 11.1961L54.6236 11.3661C54.4502 11.4995 54.3002 11.5962 54.1734 11.6563C54.0534 11.7096 53.9 11.7363 53.7132 11.7363C53.3931 11.7363 53.1697 11.6563 53.0429 11.4962C52.9162 11.3361 52.8528 11.1194 52.8528 10.8459C52.6528 11.1794 52.4227 11.4128 52.1625 11.5462C51.9024 11.6729 51.609 11.7363 51.2822 11.7363ZM51.7224 11.3361C52.1625 11.3361 52.5394 11.0827 52.8528 10.5758V8.61492C52.7928 8.7083 52.7095 8.785 52.6027 8.84502C52.496 8.90505 52.3326 8.98508 52.1125 9.08513C51.8591 9.19184 51.6523 9.29522 51.4923 9.39526C51.3389 9.48864 51.2055 9.6187 51.0921 9.78544C50.9787 9.95217 50.922 10.1656 50.922 10.4257C50.922 10.7258 50.9954 10.9526 51.1421 11.106C51.2888 11.2594 51.4822 11.3361 51.7224 11.3361Z" fill="black"/>
<path d="M23.1752 15.9057H23.9315L25.5562 13.6997H26.1165L24.3727 16.0947L26.2985 18.6719H25.7383L23.9735 16.3399H23.1752V18.6719H22.692V13.6997H23.1752V15.9057ZM28.2243 18.7419C27.9582 18.7419 27.7154 18.6929 27.496 18.5948C27.2765 18.4921 27.0851 18.3544 26.9217 18.1817C26.763 18.0089 26.6393 17.8082 26.5505 17.5794C26.4618 17.3506 26.4175 17.1102 26.4175 16.8581C26.4175 16.6013 26.4618 16.3585 26.5505 16.1298C26.6439 15.901 26.77 15.7002 26.9287 15.5275C27.0921 15.3548 27.2835 15.217 27.503 15.1143C27.7224 15.0116 27.9628 14.9602 28.2243 14.9602C28.4857 14.9602 28.7262 15.0116 28.9456 15.1143C29.1697 15.217 29.3611 15.3548 29.5199 15.5275C29.6833 15.7002 29.8093 15.901 29.898 16.1298C29.9914 16.3585 30.0381 16.6013 30.0381 16.8581C30.0381 17.1102 29.9937 17.3506 29.905 17.5794C29.8163 17.8082 29.6903 18.0089 29.5269 18.1817C29.3681 18.3544 29.1767 18.4921 28.9526 18.5948C28.7332 18.6929 28.4904 18.7419 28.2243 18.7419ZM26.9007 16.8651C26.9007 17.0705 26.9357 17.2619 27.0057 17.4393C27.0758 17.6121 27.1692 17.7661 27.2859 17.9015C27.4073 18.0323 27.5473 18.135 27.7061 18.2097C27.8695 18.2844 28.0422 18.3217 28.2243 18.3217C28.4064 18.3217 28.5768 18.2844 28.7355 18.2097C28.8989 18.1303 29.0413 18.0253 29.1627 17.8945C29.2841 17.7591 29.3798 17.6027 29.4498 17.4253C29.5199 17.2479 29.5549 17.0565 29.5549 16.8511C29.5549 16.6503 29.5199 16.4612 29.4498 16.2838C29.3798 16.1017 29.2841 15.9453 29.1627 15.8146C29.0413 15.6792 28.8989 15.5742 28.7355 15.4995C28.5768 15.4201 28.4064 15.3804 28.2243 15.3804C28.0422 15.3804 27.8718 15.4201 27.7131 15.4995C27.5543 15.5742 27.4143 15.6792 27.2929 15.8146C27.1715 15.95 27.0758 16.1088 27.0057 16.2908C26.9357 16.4682 26.9007 16.6597 26.9007 16.8651ZM32.7043 18.7419C32.3962 18.7419 32.1231 18.6649 31.885 18.5108C31.6515 18.3521 31.4625 18.1536 31.3177 17.9155V20.1635H30.8415V15.0233H31.2687V15.7306C31.4181 15.5018 31.6119 15.3174 31.85 15.1773C32.0881 15.0326 32.3472 14.9602 32.6273 14.9602C32.8794 14.9602 33.1105 15.0139 33.3206 15.1213C33.5307 15.224 33.7128 15.3641 33.8668 15.5415C34.0209 15.7142 34.14 15.915 34.224 16.1438C34.3127 16.3725 34.3571 16.6083 34.3571 16.8511C34.3571 17.1079 34.3174 17.3506 34.238 17.5794C34.1586 17.8082 34.0443 18.0089 33.8949 18.1817C33.7501 18.3544 33.575 18.4921 33.3696 18.5948C33.1689 18.6929 32.9471 18.7419 32.7043 18.7419ZM32.5713 18.3217C32.7674 18.3217 32.9448 18.2797 33.1035 18.1957C33.2669 18.1116 33.4046 18.0019 33.5167 17.8665C33.6334 17.7265 33.7221 17.5701 33.7828 17.3973C33.8435 17.2199 33.8738 17.0378 33.8738 16.8511C33.8738 16.655 33.8388 16.4682 33.7688 16.2908C33.6988 16.1134 33.6031 15.957 33.4817 15.8216C33.3603 15.6862 33.2156 15.5789 33.0475 15.4995C32.8841 15.4201 32.7067 15.3804 32.5152 15.3804C32.3939 15.3804 32.2655 15.4061 32.1301 15.4575C31.9994 15.5042 31.8756 15.5695 31.7589 15.6536C31.6469 15.7329 31.5488 15.8286 31.4648 15.9407C31.3854 16.0481 31.3364 16.1624 31.3177 16.2838V17.4043C31.3737 17.535 31.4438 17.6564 31.5278 17.7685C31.6165 17.8805 31.7146 17.9786 31.8219 18.0626C31.934 18.142 32.053 18.205 32.1791 18.2517C32.3052 18.2984 32.4359 18.3217 32.5713 18.3217ZM37.0402 18.7419C36.7321 18.7419 36.459 18.6649 36.2209 18.5108C35.9874 18.3521 35.7983 18.1536 35.6536 17.9155V20.1635H35.1774V15.0233H35.6046V15.7306C35.754 15.5018 35.9477 15.3174 36.1858 15.1773C36.4239 15.0326 36.6831 14.9602 36.9632 14.9602C37.2153 14.9602 37.4464 15.0139 37.6565 15.1213C37.8666 15.224 38.0487 15.3641 38.2027 15.5415C38.3568 15.7142 38.4758 15.915 38.5599 16.1438C38.6486 16.3725 38.6929 16.6083 38.6929 16.8511C38.6929 17.1079 38.6533 17.3506 38.5739 17.5794C38.4945 17.8082 38.3801 18.0089 38.2307 18.1817C38.086 18.3544 37.9109 18.4921 37.7055 18.5948C37.5048 18.6929 37.283 18.7419 37.0402 18.7419ZM36.9072 18.3217C37.1032 18.3217 37.2807 18.2797 37.4394 18.1957C37.6028 18.1116 37.7405 18.0019 37.8526 17.8665C37.9693 17.7265 38.058 17.5701 38.1187 17.3973C38.1794 17.2199 38.2097 17.0378 38.2097 16.8511C38.2097 16.655 38.1747 16.4682 38.1047 16.2908C38.0347 16.1134 37.9389 15.957 37.8176 15.8216C37.6962 15.6862 37.5514 15.5789 37.3834 15.4995C37.22 15.4201 37.0426 15.3804 36.8511 15.3804C36.7297 15.3804 36.6014 15.4061 36.466 15.4575C36.3352 15.5042 36.2115 15.5695 36.0948 15.6536C35.9828 15.7329 35.8847 15.8286 35.8007 15.9407C35.7213 16.0481 35.6723 16.1624 35.6536 16.2838V17.4043C35.7096 17.535 35.7797 17.6564 35.8637 17.7685C35.9524 17.8805 36.0505 17.9786 36.1578 18.0626C36.2699 18.142 36.3889 18.205 36.515 18.2517C36.641 18.2984 36.7718 18.3217 36.9072 18.3217ZM41.082 18.7419C40.8159 18.7419 40.5707 18.6929 40.3467 18.5948C40.1272 18.4921 39.9358 18.3544 39.7724 18.1817C39.609 18.0042 39.4806 17.8012 39.3872 17.5724C39.2985 17.3436 39.2542 17.0985 39.2542 16.8371C39.2542 16.5803 39.2985 16.3399 39.3872 16.1158C39.4806 15.887 39.6067 15.6886 39.7654 15.5205C39.9288 15.3478 40.1226 15.2124 40.3467 15.1143C40.5707 15.0116 40.8135 14.9602 41.075 14.9602C41.3411 14.9602 41.5839 15.0116 41.8033 15.1143C42.0274 15.2124 42.2188 15.3478 42.3775 15.5205C42.5363 15.6932 42.66 15.8917 42.7487 16.1158C42.8374 16.3399 42.8818 16.578 42.8818 16.8301C42.8818 16.8674 42.8818 16.9048 42.8818 16.9421C42.8818 16.9795 42.8794 17.0051 42.8748 17.0192H39.7514C39.7654 17.2152 39.8097 17.3973 39.8844 17.5654C39.9638 17.7288 40.0642 17.8712 40.1856 17.9926C40.307 18.114 40.4447 18.2097 40.5988 18.2797C40.7575 18.3451 40.9256 18.3777 41.103 18.3777C41.2197 18.3777 41.3364 18.3614 41.4531 18.3287C41.5699 18.296 41.6772 18.2517 41.7753 18.1957C41.8733 18.1396 41.962 18.0719 42.0414 17.9926C42.1208 17.9085 42.1815 17.8175 42.2235 17.7195L42.6367 17.8315C42.5806 17.9669 42.5013 18.0906 42.3986 18.2027C42.2958 18.31 42.1768 18.4058 42.0414 18.4898C41.906 18.5692 41.7566 18.6299 41.5932 18.6719C41.4298 18.7186 41.2594 18.7419 41.082 18.7419ZM42.4266 16.655C42.4126 16.4589 42.3659 16.2815 42.2865 16.1228C42.2118 15.9594 42.1138 15.8193 41.9924 15.7026C41.8757 15.5859 41.7379 15.4948 41.5792 15.4295C41.4251 15.3641 41.2594 15.3314 41.082 15.3314C40.9046 15.3314 40.7365 15.3641 40.5778 15.4295C40.419 15.4948 40.279 15.5859 40.1576 15.7026C40.0409 15.8193 39.9451 15.9594 39.8704 16.1228C39.8004 16.2862 39.7584 16.4636 39.7444 16.655H42.4266ZM45.7804 15.0233H46.3127L44.9331 16.788L46.4317 18.6719H45.8995L44.6109 17.0051H44.0927V18.6719H43.6235V15.0233H44.0927V16.634H44.5689L45.7804 15.0233ZM48.3742 18.6719H47.912V15.4365H46.6304V15.0233H49.6558V15.4365H48.3742V18.6719ZM50.8017 17.9996L52.9796 15.0233H53.3648V18.6719H52.8956V15.7516L50.7597 18.6719H50.3325V15.0233H50.8017V17.9996ZM56.2987 18.7419C55.9905 18.7419 55.7174 18.6649 55.4793 18.5108C55.2459 18.3521 55.0568 18.1536 54.9121 17.9155V20.1635H54.4358V15.0233H54.863V15.7306C55.0124 15.5018 55.2062 15.3174 55.4443 15.1773C55.6824 15.0326 55.9415 14.9602 56.2216 14.9602C56.4737 14.9602 56.7048 15.0139 56.9149 15.1213C57.125 15.224 57.3071 15.3641 57.4612 15.5415C57.6152 15.7142 57.7343 15.915 57.8183 16.1438C57.907 16.3725 57.9514 16.6083 57.9514 16.8511C57.9514 17.1079 57.9117 17.3506 57.8323 17.5794C57.753 17.8082 57.6386 18.0089 57.4892 18.1817C57.3445 18.3544 57.1694 18.4921 56.964 18.5948C56.7632 18.6929 56.5414 18.7419 56.2987 18.7419ZM56.1656 18.3217C56.3617 18.3217 56.5391 18.2797 56.6978 18.1957C56.8612 18.1116 56.999 18.0019 57.111 17.8665C57.2277 17.7265 57.3164 17.5701 57.3771 17.3973C57.4378 17.2199 57.4682 17.0378 57.4682 16.8511C57.4682 16.655 57.4332 16.4682 57.3631 16.2908C57.2931 16.1134 57.1974 15.957 57.076 15.8216C56.9546 15.6862 56.8099 15.5789 56.6418 15.4995C56.4784 15.4201 56.301 15.3804 56.1096 15.3804C55.9882 15.3804 55.8598 15.4061 55.7244 15.4575C55.5937 15.5042 55.47 15.5695 55.3532 15.6536C55.2412 15.7329 55.1432 15.8286 55.0591 15.9407C54.9797 16.0481 54.9307 16.1624 54.9121 16.2838V17.4043C54.9681 17.535 55.0381 17.6564 55.1221 17.7685C55.2108 17.8805 55.3089 17.9786 55.4163 18.0626C55.5283 18.142 55.6474 18.205 55.7734 18.2517C55.8995 18.2984 56.0302 18.3217 56.1656 18.3217ZM58.6416 19.6383C58.7117 19.7037 58.7817 19.748 58.8517 19.7714C58.9217 19.7947 58.9964 19.8064 59.0758 19.8064C59.1365 19.8064 59.1949 19.7877 59.2509 19.7503C59.3116 19.7177 59.3699 19.657 59.426 19.5683C59.4867 19.4842 59.5474 19.3698 59.608 19.2251C59.6687 19.0804 59.7364 18.896 59.8111 18.6719L58.2214 15.0233H58.7117L60.0632 18.2307L61.3168 15.0233H61.772L60.0703 19.2741C60.0002 19.4562 59.9279 19.608 59.8532 19.7293C59.7831 19.8507 59.7084 19.9488 59.6291 20.0235C59.5544 20.0982 59.4727 20.1495 59.3839 20.1775C59.2999 20.2102 59.2065 20.2266 59.1038 20.2266C58.8937 20.2266 58.7327 20.1705 58.6206 20.0585L58.6416 19.6383ZM63.5087 16.627C63.5274 16.3749 63.5811 16.1461 63.6698 15.9407C63.7631 15.7306 63.8822 15.5532 64.0269 15.4084C64.1717 15.2637 64.3397 15.1517 64.5312 15.0723C64.7226 14.9929 64.928 14.9532 65.1474 14.9532C65.3995 14.9532 65.6283 15.0023 65.8337 15.1003C66.0438 15.1937 66.2212 15.3267 66.366 15.4995C66.5154 15.6676 66.6297 15.8683 66.7091 16.1017C66.7931 16.3352 66.8352 16.5873 66.8352 16.8581C66.8352 17.1475 66.7908 17.409 66.7021 17.6424C66.6181 17.8712 66.499 18.0673 66.3449 18.2307C66.1955 18.3941 66.0181 18.5201 65.8127 18.6088C65.6073 18.6976 65.3832 18.7419 65.1404 18.7419C64.907 18.7419 64.6946 18.7022 64.5031 18.6229C64.3117 18.5388 64.1436 18.4244 63.9989 18.2797C63.8589 18.1303 63.7468 17.9506 63.6628 17.7405C63.5787 17.5304 63.5274 17.2993 63.5087 17.0472H62.9064V18.6719H62.4442V15.0233H62.9064V16.627H63.5087ZM63.9709 16.8511C63.9709 17.3179 64.0783 17.6798 64.293 17.9366C64.5078 18.1933 64.7926 18.3217 65.1474 18.3217C65.3342 18.3217 65.5022 18.2867 65.6516 18.2167C65.8057 18.1466 65.9341 18.0486 66.0368 17.9225C66.1395 17.7918 66.2189 17.6378 66.2749 17.4603C66.3309 17.2783 66.359 17.0752 66.359 16.8511C66.359 16.3889 66.2469 16.0294 66.0228 15.7726C65.7987 15.5112 65.5069 15.3804 65.1474 15.3804C64.9653 15.3804 64.8019 15.4154 64.6572 15.4855C64.5125 15.5555 64.3888 15.6559 64.286 15.7866C64.1833 15.9127 64.104 16.0667 64.0479 16.2488C63.9966 16.4309 63.9709 16.6316 63.9709 16.8511ZM67.6487 15.0233H68.1179V18.2587H69.4905V15.0233H69.9597V18.2587H71.3323V15.0233H71.8015V18.2587H72.4108V19.7994H71.9976V18.6719H67.6487V15.0233ZM73.5343 17.9996L75.7123 15.0233H76.0974V18.6719H75.6282V15.7516L73.4923 18.6719H73.0651V15.0233H73.5343V17.9996ZM78.7372 18.7419C78.471 18.7419 78.2259 18.6929 78.0018 18.5948C77.7824 18.4921 77.591 18.3544 77.4276 18.1817C77.2642 18.0042 77.1358 17.8012 77.0424 17.5724C76.9537 17.3436 76.9094 17.0985 76.9094 16.8371C76.9094 16.5803 76.9537 16.3399 77.0424 16.1158C77.1358 15.887 77.2618 15.6886 77.4206 15.5205C77.584 15.3478 77.7777 15.2124 78.0018 15.1143C78.2259 15.0116 78.4687 14.9602 78.7301 14.9602C78.9963 14.9602 79.239 15.0116 79.4585 15.1143C79.6826 15.2124 79.874 15.3478 80.0327 15.5205C80.1915 15.6932 80.3152 15.8917 80.4039 16.1158C80.4926 16.3399 80.5369 16.578 80.5369 16.8301C80.5369 16.8674 80.5369 16.9048 80.5369 16.9421C80.5369 16.9795 80.5346 17.0051 80.5299 17.0192H77.4066C77.4206 17.2152 77.4649 17.3973 77.5396 17.5654C77.619 17.7288 77.7194 17.8712 77.8408 17.9926C77.9621 18.114 78.0999 18.2097 78.2539 18.2797C78.4127 18.3451 78.5807 18.3777 78.7582 18.3777C78.8749 18.3777 78.9916 18.3614 79.1083 18.3287C79.225 18.296 79.3324 18.2517 79.4305 18.1957C79.5285 18.1396 79.6172 18.0719 79.6966 17.9926C79.7759 17.9085 79.8366 17.8175 79.8787 17.7195L80.2918 17.8315C80.2358 17.9669 80.1564 18.0906 80.0537 18.2027C79.951 18.31 79.832 18.4058 79.6966 18.4898C79.5612 18.5692 79.4118 18.6299 79.2484 18.6719C79.085 18.7186 78.9146 18.7419 78.7372 18.7419ZM80.0817 16.655C80.0677 16.4589 80.021 16.2815 79.9417 16.1228C79.867 15.9594 79.7689 15.8193 79.6476 15.7026C79.5308 15.5859 79.3931 15.4948 79.2344 15.4295C79.0803 15.3641 78.9146 15.3314 78.7372 15.3314C78.5597 15.3314 78.3917 15.3641 78.2329 15.4295C78.0742 15.4948 77.9341 15.5859 77.8127 15.7026C77.696 15.8193 77.6003 15.9594 77.5256 16.1228C77.4556 16.2862 77.4136 16.4636 77.3996 16.655H80.0817ZM85.2206 15.0233H85.7528L84.3732 16.788L85.8719 18.6719H85.3396L84.0511 17.0051H83.5328V18.6719H83.0636V15.0233H83.5328V16.634H84.009L85.2206 15.0233ZM88.3186 18.7419C88.0104 18.7419 87.7373 18.6649 87.4992 18.5108C87.2658 18.3521 87.0767 18.1536 86.9319 17.9155V20.1635H86.4557V15.0233H86.8829V15.7306C87.0323 15.5018 87.2261 15.3174 87.4642 15.1773C87.7023 15.0326 87.9614 14.9602 88.2415 14.9602C88.4936 14.9602 88.7247 15.0139 88.9348 15.1213C89.1449 15.224 89.327 15.3641 89.4811 15.5415C89.6351 15.7142 89.7542 15.915 89.8382 16.1438C89.9269 16.3725 89.9713 16.6083 89.9713 16.8511C89.9713 17.1079 89.9316 17.3506 89.8522 17.5794C89.7729 17.8082 89.6585 18.0089 89.5091 18.1817C89.3643 18.3544 89.1893 18.4921 88.9838 18.5948C88.7831 18.6929 88.5613 18.7419 88.3186 18.7419ZM88.1855 18.3217C88.3816 18.3217 88.559 18.2797 88.7177 18.1957C88.8811 18.1116 89.0189 18.0019 89.1309 17.8665C89.2476 17.7265 89.3363 17.5701 89.397 17.3973C89.4577 17.2199 89.4881 17.0378 89.4881 16.8511C89.4881 16.655 89.4531 16.4682 89.383 16.2908C89.313 16.1134 89.2173 15.957 89.0959 15.8216C88.9745 15.6862 88.8298 15.5789 88.6617 15.4995C88.4983 15.4201 88.3209 15.3804 88.1295 15.3804C88.0081 15.3804 87.8797 15.4061 87.7443 15.4575C87.6136 15.5042 87.4899 15.5695 87.3731 15.6536C87.2611 15.7329 87.163 15.8286 87.079 15.9407C86.9996 16.0481 86.9506 16.1624 86.9319 16.2838V17.4043C86.988 17.535 87.058 17.6564 87.142 17.7685C87.2307 17.8805 87.3288 17.9786 87.4362 18.0626C87.5482 18.142 87.6673 18.205 87.7933 18.2517C87.9194 18.2984 88.0501 18.3217 88.1855 18.3217ZM92.3603 18.7419C92.0942 18.7419 91.8491 18.6929 91.625 18.5948C91.4056 18.4921 91.2141 18.3544 91.0507 18.1817C90.8873 18.0042 90.7589 17.8012 90.6656 17.5724C90.5769 17.3436 90.5325 17.0985 90.5325 16.8371C90.5325 16.5803 90.5769 16.3399 90.6656 16.1158C90.7589 15.887 90.885 15.6886 91.0437 15.5205C91.2071 15.3478 91.4009 15.2124 91.625 15.1143C91.8491 15.0116 92.0919 14.9602 92.3533 14.9602C92.6194 14.9602 92.8622 15.0116 93.0816 15.1143C93.3057 15.2124 93.4971 15.3478 93.6559 15.5205C93.8146 15.6932 93.9383 15.8917 94.027 16.1158C94.1157 16.3399 94.1601 16.578 94.1601 16.8301C94.1601 16.8674 94.1601 16.9048 94.1601 16.9421C94.1601 16.9795 94.1578 17.0051 94.1531 17.0192H91.0297C91.0437 17.2152 91.0881 17.3973 91.1628 17.5654C91.2422 17.7288 91.3425 17.8712 91.4639 17.9926C91.5853 18.114 91.723 18.2097 91.8771 18.2797C92.0358 18.3451 92.2039 18.3777 92.3813 18.3777C92.498 18.3777 92.6148 18.3614 92.7315 18.3287C92.8482 18.296 92.9556 18.2517 93.0536 18.1957C93.1517 18.1396 93.2404 18.0719 93.3197 17.9926C93.3991 17.9085 93.4598 17.8175 93.5018 17.7195L93.915 17.8315C93.859 17.9669 93.7796 18.0906 93.6769 18.2027C93.5742 18.31 93.4551 18.4058 93.3197 18.4898C93.1843 18.5692 93.0349 18.6299 92.8715 18.6719C92.7081 18.7186 92.5377 18.7419 92.3603 18.7419ZM93.7049 16.655C93.6909 16.4589 93.6442 16.2815 93.5648 16.1228C93.4901 15.9594 93.3921 15.8193 93.2707 15.7026C93.154 15.5859 93.0163 15.4948 92.8575 15.4295C92.7035 15.3641 92.5377 15.3314 92.3603 15.3314C92.1829 15.3314 92.0148 15.3641 91.8561 15.4295C91.6974 15.4948 91.5573 15.5859 91.4359 15.7026C91.3192 15.8193 91.2235 15.9594 91.1488 16.1228C91.0788 16.2862 91.0367 16.4636 91.0227 16.655H93.7049ZM94.3862 18.2587H94.5963C94.699 18.2354 94.7877 18.184 94.8624 18.1046C94.9418 18.0206 95.0118 17.8945 95.0725 17.7265C95.1332 17.5537 95.1869 17.3296 95.2336 17.0542C95.2803 16.774 95.3293 16.4262 95.3807 16.0107L95.4927 15.0233H97.6286V18.2587H98.0768V19.7994H97.6567V18.6719H94.7854V19.7994H94.3862V18.2587ZM97.1664 18.2587V15.4014H95.9339L95.8289 16.2138C95.7495 16.7927 95.6631 17.2456 95.5697 17.5724C95.481 17.8992 95.3737 18.128 95.2476 18.2587H97.1664ZM99.3034 17.9996L101.481 15.0233H101.867V18.6719H101.397V15.7516L99.2614 18.6719H98.8342V15.0233H99.3034V17.9996ZM104.296 18.6719H103.834V15.4365H102.552V15.0233H105.578V15.4365H104.296V18.6719ZM106.254 15.0233H106.724V16.3188H107.515C107.683 16.3188 107.842 16.3445 107.991 16.3959C108.141 16.4472 108.271 16.5219 108.383 16.62C108.495 16.718 108.584 16.8417 108.65 16.9911C108.715 17.1359 108.748 17.3039 108.748 17.4954C108.748 17.6868 108.715 17.8572 108.65 18.0066C108.584 18.1513 108.495 18.2727 108.383 18.3707C108.271 18.4688 108.141 18.5435 107.991 18.5948C107.842 18.6462 107.683 18.6719 107.515 18.6719H106.254V15.0233ZM109.203 15.0233H109.665V18.6719H109.203V15.0233ZM107.515 18.2657C107.758 18.2657 107.945 18.198 108.075 18.0626C108.211 17.9225 108.278 17.7335 108.278 17.4954C108.278 17.2573 108.211 17.0705 108.075 16.9351C107.94 16.7951 107.753 16.725 107.515 16.725H106.724V18.2657H107.515Z" fill="black"/>
</svg>
