<svg width="34" height="27" viewBox="0 0 34 27" fill="none" xmlns="http://www.w3.org/2000/svg">
<ellipse cx="23.2396" cy="14.568" rx="10.4523" ry="10.4127" fill="#FDDCD5"/>
<path d="M22.2405 14.1526C22.0305 14.1526 21.8602 14.3222 21.8602 14.5314C21.8602 14.7967 21.6436 15.0125 21.3774 15.0125C21.1112 15.0125 20.8945 14.7967 20.8945 14.5314C20.8945 14.3221 20.7243 14.1526 20.5142 14.1526C20.3042 14.1526 20.134 14.3222 20.134 14.5314C20.134 15.2145 20.6918 15.7701 21.3774 15.7701C22.063 15.7701 22.6208 15.2144 22.6208 14.5314C22.6208 14.3221 22.4505 14.1526 22.2405 14.1526Z" fill="black"/>
<path d="M25.8107 14.2145L24.7404 13.8729C24.6033 13.8292 24.4952 13.7201 24.4514 13.5813C24.2258 12.8668 23.8854 12.196 23.4396 11.5875C23.2364 11.3102 23.0105 11.0453 22.7636 10.7932C22.9216 10.1031 23.0074 9.32209 22.9963 8.64735C22.9803 7.68209 22.7867 7.11595 22.4043 6.91644C22.1984 6.80886 21.5717 6.48203 18.1794 8.02899C18.0991 8.0656 18.0241 8.1107 17.9546 8.16236C17.7259 8.10114 17.4922 8.0445 17.257 7.99366C17.2286 7.98751 17.1995 7.98207 17.1709 7.97607C17.4458 7.37784 17.6063 6.72812 17.6365 6.05739C17.6459 5.84832 17.4834 5.67129 17.2736 5.66198C17.0643 5.65161 16.886 5.81441 16.8766 6.02348C16.8271 7.12632 16.3679 8.16398 15.5836 8.94529C15.1151 9.41209 14.5664 9.75116 13.9817 9.9647C12.9676 9.82295 11.9348 9.82295 10.9207 9.9647C10.3359 9.75116 9.78733 9.41209 9.31876 8.94529C8.48206 8.11177 8.02125 7.00353 8.02125 5.82473C8.02125 4.64588 8.48206 3.53769 9.31876 2.70417C10.1555 1.87059 11.268 1.41153 12.4512 1.41153C13.6344 1.41153 14.7469 1.87059 15.5836 2.70417C15.9199 3.03912 16.1977 3.42137 16.4095 3.84016C16.5039 4.02706 16.7326 4.10231 16.9202 4.00815C17.1078 3.91409 17.1833 3.68626 17.0888 3.49941C16.8406 3.00831 16.5152 2.56054 16.1215 2.16833C15.1411 1.19168 13.8377 0.653809 12.4512 0.653809C11.0648 0.653809 9.76135 1.19168 8.78098 2.16833C7.80062 3.14503 7.2607 4.44352 7.2607 5.82468C7.2607 7.20584 7.80062 8.50438 8.78098 9.48103C9.06378 9.76275 9.37143 10.005 9.69684 10.208C9.69694 10.208 9.69704 10.2079 9.69715 10.2079C9.46069 10.2692 9.22602 10.3379 8.99396 10.4152C8.79476 10.4815 8.68728 10.6961 8.75388 10.8946C8.82043 11.0931 9.03596 11.2001 9.23511 11.1338C11.309 10.4431 13.5934 10.4431 15.6674 11.1338C15.7074 11.1472 15.748 11.1535 15.788 11.1535C15.9471 11.1535 16.0954 11.0532 16.1486 10.8946C16.2152 10.6962 16.1077 10.4815 15.9085 10.4152C15.6765 10.3379 15.4418 10.2691 15.2053 10.2079C15.2054 10.2079 15.2055 10.208 15.2057 10.208C15.5311 10.005 15.8387 9.76275 16.1215 9.48103C16.3717 9.2318 16.5925 8.95963 16.7843 8.67038C16.8891 8.69067 16.9932 8.71192 17.0957 8.73409C17.2323 8.76363 17.3682 8.79536 17.503 8.82866C17.4987 8.84513 17.4944 8.86155 17.4909 8.87828C17.3054 9.75508 17.3175 10.5305 17.5267 11.183C17.7147 11.7695 18.054 12.2446 18.5351 12.5953C19.1022 13.0085 19.7868 13.1871 20.407 13.1871C20.8737 13.1871 21.304 13.0859 21.62 12.9076C21.9775 12.7059 22.277 12.2809 22.514 11.6428C22.6236 11.7702 22.7275 11.9007 22.8253 12.0343C23.2223 12.576 23.5253 13.173 23.7259 13.8087C23.8438 14.182 24.1363 14.4758 24.5084 14.5946L25.5788 14.9362C25.8596 15.0258 26.0483 15.2833 26.0483 15.5771V17.3452C26.0483 17.6389 25.8596 17.8965 25.5788 17.9861L23.8543 18.5364C23.5784 18.6245 23.3449 18.8134 23.1968 19.0683C22.5193 20.2348 21.4541 21.2 20.0307 21.9373C19.8662 22.0226 19.7523 22.175 19.718 22.3557L19.1657 25.2692C19.1504 25.3495 19.0799 25.4077 18.9978 25.4077H17.202C17.12 25.4077 17.0494 25.3494 17.0341 25.2692L16.7282 23.6591C16.668 23.3423 16.3698 23.1318 16.0487 23.1803C15.2752 23.2968 14.4781 23.3558 13.6797 23.3558C13.0857 23.3558 12.4994 23.3228 11.9368 23.2577C11.6257 23.2221 11.3359 23.4333 11.2778 23.7393L10.9871 25.2692C10.9718 25.3495 10.9013 25.4077 10.8192 25.4077H9.02341C8.94139 25.4077 8.87081 25.3494 8.85534 25.268L8.32354 22.5163C8.28929 22.339 8.17752 22.1882 8.01671 22.1026C5.59021 20.8122 4.30766 18.6562 4.30766 15.868C4.30766 14.4592 4.61704 13.2135 5.22719 12.1653C5.79655 11.1871 6.62815 10.3784 7.69885 9.76138C7.88064 9.65659 7.94275 9.42485 7.83762 9.24369C7.73248 9.06259 7.49986 9.00081 7.31801 9.10545C5.24189 10.3019 3.9897 12.1477 3.64494 14.4921V14.4921C3.60835 14.4887 3.57171 14.4856 3.53521 14.4818C3.54185 14.2289 3.49592 13.9737 3.39588 13.7259C3.17525 13.1796 2.72204 12.7852 2.24123 12.7213C1.86233 12.6708 1.50175 12.831 1.25152 13.1604C0.8887 13.638 0.947851 14.016 1.06131 14.249C1.25285 14.6421 1.7452 14.9203 2.56225 15.0951C2.53979 15.1286 2.51509 15.1623 2.48804 15.1961C2.00528 15.7992 1.43653 15.9326 1.06723 15.9452C0.851034 15.9524 0.677917 16.1253 0.677917 16.3409V16.3427C0.677917 16.5553 0.846288 16.7286 1.05947 16.7384C1.08677 16.7396 1.1153 16.7403 1.14501 16.7403C1.6123 16.7403 2.36229 16.5686 3.08282 15.6685C3.19658 15.5265 3.28927 15.3766 3.36052 15.2217C3.43227 15.2298 3.50122 15.2367 3.56727 15.2428C3.56727 15.2427 3.56727 15.2425 3.56732 15.2424C3.55435 15.4477 3.54716 15.656 3.54716 15.868C3.54716 17.4455 3.92468 18.8521 4.66915 20.0488C5.3556 21.1521 6.33841 22.0555 7.59126 22.7349L8.10827 25.4101C8.19141 25.8477 8.57627 26.1654 9.02341 26.1654H10.8192C11.2664 26.1654 11.6512 25.8477 11.7344 25.4101L11.9972 24.0267C12.5431 24.0843 13.1083 24.1135 13.6797 24.1135C14.4636 24.1135 15.2466 24.0591 16.0097 23.9517L16.2868 25.4102C16.37 25.8478 16.7548 26.1654 17.2019 26.1654H18.9977C19.4449 26.1654 19.8297 25.8478 19.9129 25.41L20.4507 22.5733C21.97 21.773 23.1151 20.7217 23.8551 19.4478C23.9084 19.3559 23.9905 19.2886 24.0863 19.258L25.8107 18.7077C26.4077 18.5171 26.8088 17.9696 26.8088 17.3451V15.577C26.8088 14.9525 26.4077 14.405 25.8107 14.2145ZM22.1786 9.71196C22.0322 10.9589 21.6396 12.0256 21.2451 12.2482C20.7967 12.5013 19.7614 12.5501 18.9841 11.9837C18.2059 11.4166 17.9469 10.3968 18.235 9.03447C18.235 9.03442 18.235 9.03442 18.235 9.03442C18.2639 8.8976 18.3615 8.77924 18.496 8.71792C20.3999 7.84972 21.4975 7.56576 21.9053 7.56576C21.9669 7.56576 22.0127 7.57222 22.0432 7.58411C22.1657 7.71417 22.3264 8.45349 22.1786 9.71196ZM1.74566 13.9181C1.70631 13.8373 1.7992 13.6952 1.85809 13.6176C1.95144 13.4948 2.03744 13.4696 2.10241 13.4696C2.11614 13.4696 2.12895 13.4708 2.14068 13.4723C2.31554 13.4956 2.56051 13.6873 2.6903 14.0086C2.72087 14.0843 2.76058 14.2096 2.76987 14.3659C2.24342 14.2573 1.83441 14.1006 1.74566 13.9181Z" fill="black"/>
<path d="M11.335 8.6572V7.60912H10.6818V7.1082H11.335V6.42232H10.6818V5.83663H11.335V3.15479H12.7465C13.4022 3.15479 13.8877 3.29093 14.2031 3.56323C14.5234 3.83552 14.6836 4.23112 14.6836 4.75002C14.6836 5.27406 14.5109 5.68507 14.1655 5.98306C13.8202 6.2759 13.3121 6.42232 12.6414 6.42232H12.0107V7.1082H13.2496V7.60912H12.0107V8.6572H11.335ZM12.0107 5.83663H12.5438C12.9993 5.83663 13.3522 5.75957 13.6024 5.60544C13.8577 5.45131 13.9853 5.17388 13.9853 4.77314C13.9853 4.42378 13.8802 4.16433 13.67 3.99479C13.4598 3.82525 13.1319 3.74048 12.6865 3.74048H12.0107V5.83663Z" fill="black"/>
</svg>
