<svg width="31" height="26" viewBox="0 0 31 26" fill="none" xmlns="http://www.w3.org/2000/svg">
<circle cx="20.0563" cy="13.6597" r="10.0044" fill="#FDDCD5"/>
<path d="M19.4764 8.01074C18.9677 8.01074 18.5539 8.42162 18.5539 8.92657V14.7212C18.5539 15.2262 18.9677 15.637 19.4764 15.637C19.9851 15.637 20.3989 15.2262 20.3989 14.7212V8.92657C20.3988 8.42162 19.985 8.01074 19.4764 8.01074ZM19.6767 14.7212C19.6767 14.8309 19.5868 14.9202 19.4763 14.9202C19.3658 14.9202 19.2759 14.8309 19.2759 14.7212V8.92657C19.2759 8.81686 19.3658 8.72761 19.4763 8.72761C19.5868 8.72761 19.6767 8.81686 19.6767 8.92657V14.7212Z" fill="black"/>
<path d="M22.7652 0.153809H1.83919C1.1267 0.153809 0.547058 0.729256 0.547058 1.43655V18.6093C0.547058 18.8072 0.708697 18.9677 0.908077 18.9677C1.10746 18.9677 1.2691 18.8072 1.2691 18.6093V1.43655C1.2691 1.1245 1.52482 0.870676 1.83914 0.870676H22.7651C23.0795 0.870676 23.3352 1.1245 23.3352 1.43655V22.2113C23.3352 22.5233 23.0795 22.7772 22.7651 22.7772H1.83919C1.52486 22.7772 1.26914 22.5233 1.26914 22.2113V20.9156C1.26914 20.7177 1.10751 20.5572 0.908126 20.5572C0.708746 20.5572 0.547107 20.7177 0.547107 20.9156V22.2113C0.547107 22.9186 1.12674 23.4941 1.83924 23.4941H2.53977L2.69875 24.4548C2.75189 24.8602 3.10042 25.1648 3.5132 25.1648H4.96362C5.37635 25.1648 5.72492 24.8602 5.77811 24.4548L5.9371 23.4941H18.6673L18.8263 24.4548C18.8795 24.8602 19.2281 25.1648 19.6408 25.1648H21.0912C21.504 25.1648 21.8525 24.8602 21.9057 24.4548L22.0647 23.4941H22.7652C23.4777 23.4941 24.0574 22.9186 24.0574 22.2113V1.43655C24.0574 0.729256 23.4777 0.153809 22.7652 0.153809ZM5.06454 24.3453C5.06365 24.3505 5.06292 24.3558 5.06228 24.361C5.05632 24.4106 5.01396 24.4479 4.96367 24.4479H3.5132C3.46291 24.4479 3.42054 24.4106 3.41459 24.361C3.414 24.3558 3.41321 24.3505 3.41233 24.3453L3.2715 23.4941H5.20537L5.06454 24.3453ZM21.1921 24.3453C21.1913 24.3505 21.1905 24.3558 21.1899 24.361C21.1839 24.4106 21.1416 24.4479 21.0913 24.4479H19.6409C19.5906 24.4479 19.5482 24.4106 19.5422 24.361C19.5417 24.3558 19.5409 24.3505 19.54 24.3453L19.3991 23.4941H21.333L21.1921 24.3453Z" fill="black"/>
<path d="M12.3026 6.28418C9.22567 6.28418 6.72235 8.7694 6.72235 11.8241C6.72235 14.8788 9.22567 17.364 12.3026 17.364C15.3796 17.364 17.8829 14.8788 17.8829 11.8241C17.8829 8.76935 15.3796 6.28418 12.3026 6.28418ZM12.3026 16.6471C9.62379 16.6471 7.44444 14.4835 7.44444 11.8241C7.44444 9.16459 9.62379 7.001 12.3026 7.001C14.9814 7.001 17.1608 9.16464 17.1608 11.8241C17.1608 14.4835 14.9814 16.6471 12.3026 16.6471Z" fill="black"/>
<path d="M21.4497 4.80566C21.6491 4.80566 21.8107 4.64518 21.8107 4.44725V3.5277C21.8107 2.89154 21.2894 2.37402 20.6486 2.37402H3.93499C3.29419 2.37402 2.77291 2.89154 2.77291 3.5277V5.4045H2.63769C2.28937 5.4045 2.00604 5.68578 2.00604 6.03158V7.55154C2.00604 7.89734 2.28937 8.17862 2.63769 8.17862H2.77291V15.4696H2.63769C2.28937 15.4696 2.00604 15.7508 2.00604 16.0966V17.6165C2.00604 17.9623 2.28937 18.2436 2.63769 18.2436H2.77291V20.1205C2.77291 20.7566 3.29419 21.2742 3.93499 21.2742H20.6486C21.2894 21.2742 21.8107 20.7566 21.8107 20.1205V6.72017C21.8107 6.52218 21.6491 6.36176 21.4497 6.36176C21.2503 6.36176 21.0887 6.52223 21.0887 6.72017V20.1205C21.0887 20.3614 20.8913 20.5574 20.6486 20.5574H3.93499C3.69235 20.5574 3.49494 20.3614 3.49494 20.1205V18.2437H3.67789C4.02621 18.2437 4.30954 17.9624 4.30954 17.6166V16.0967C4.30954 15.7509 4.02621 15.4696 3.67789 15.4696H3.49494V8.17862H3.67789C4.02621 8.17862 4.30954 7.89734 4.30954 7.55154V6.03158C4.30954 5.68578 4.02621 5.4045 3.67789 5.4045H3.49494V3.5277C3.49494 3.28683 3.69235 3.09084 3.93499 3.09084H20.6486C20.8913 3.09084 21.0887 3.28683 21.0887 3.5277V4.44725C21.0887 4.64523 21.2503 4.80566 21.4497 4.80566ZM3.58755 16.1864V17.5268H3.13397H2.72818V16.1864H3.13397H3.58755ZM3.5875 6.12142V7.46175H3.13392H2.72813V6.12137H3.13299C3.13329 6.12137 3.13358 6.12142 3.13392 6.12142H3.5875Z" fill="black"/>
<path d="M12.3028 7.68994C10.0068 7.68994 8.13885 9.54442 8.13885 11.8238C8.13885 14.1033 10.0068 15.9577 12.3028 15.9577C14.5989 15.9577 16.4668 14.1033 16.4668 11.8238C16.4668 9.54442 14.599 7.68994 12.3028 7.68994ZM15.7258 11.4654H14.7914C14.7301 11.0444 14.5631 10.6569 14.3174 10.3309L14.9772 9.67592C15.3853 10.1758 15.6547 10.7916 15.7258 11.4654ZM12.6639 8.42571C13.3426 8.4963 13.9629 8.7637 14.4665 9.16896L13.8067 9.82403C13.4783 9.58008 13.088 9.41423 12.6639 9.35341V8.42571ZM11.9419 8.42571V9.35341C11.5178 9.41423 11.1275 9.58003 10.7991 9.82403L10.1393 9.16896C10.6428 8.7637 11.2631 8.49625 11.9419 8.42571ZM9.62859 9.67587L10.2884 10.3309C10.0426 10.6569 9.8756 11.0444 9.81434 11.4654H8.87994C8.95104 10.7916 9.22044 10.1758 9.62859 9.67587ZM8.87998 12.1823H9.81439C9.87565 12.6033 10.0427 12.9908 10.2884 13.3168L9.62864 13.9718C9.22044 13.4719 8.95104 12.8561 8.87998 12.1823ZM11.9419 15.222C11.2632 15.1514 10.6429 14.884 10.1393 14.4788L10.7991 13.8237C11.1274 14.0677 11.5178 14.2335 11.9419 14.2943V15.222ZM10.5097 11.8239C10.5097 10.8407 11.3125 10.0437 12.3028 10.0437C13.2932 10.0437 14.096 10.8407 14.096 11.8239C14.096 12.8071 13.2932 13.6041 12.3028 13.6041C11.3125 13.6041 10.5097 12.807 10.5097 11.8239ZM12.6639 15.222V14.2943C13.088 14.2335 13.4783 14.0677 13.8067 13.8237L14.4665 14.4788C13.963 14.884 13.3427 15.1514 12.6639 15.222ZM14.9771 13.9718L14.3173 13.3168C14.5631 12.9908 14.7301 12.6033 14.7914 12.1822H15.7258C15.6547 12.8561 15.3853 13.4719 14.9771 13.9718Z" fill="black"/>
</svg>
