<svg width="30" height="25" viewBox="0 0 30 25" fill="none" xmlns="http://www.w3.org/2000/svg">
<circle cx="19.6198" cy="12.6599" r="10.0044" fill="#FDDCD5"/>
<path d="M7.18381 20.0562C6.50046 20.0562 5.94452 20.614 5.94452 21.2998C5.94452 21.9856 6.50046 22.5435 7.18381 22.5435C7.86717 22.5435 8.42311 21.9856 8.42311 21.2998C8.42311 20.6141 7.86717 20.0562 7.18381 20.0562ZM7.18381 21.7052C6.96106 21.7052 6.77985 21.5234 6.77985 21.2998C6.77985 21.0763 6.96106 20.8944 7.18381 20.8944C7.40657 20.8944 7.58778 21.0763 7.58778 21.2998C7.58778 21.5234 7.40657 21.7052 7.18381 21.7052Z" fill="black"/>
<path d="M21.3561 10.3391L22.1219 10.0889L22.372 8.8384L20.6213 8.64924H21.3561V7.90101H20.6213V7.26208H21.3561V4.33643H22.9441C23.6817 4.33643 24.2279 4.48495 24.5827 4.782C24.9431 5.07905 25.1233 5.51061 25.1233 6.07668C25.1233 6.64836 24.929 7.09674 24.5404 7.42181C24.1519 7.74128 23.5804 7.90101 22.8258 7.90101H22.1163V8.64924H23.51V9.1957H22.1163V10.3391H21.3561ZM22.1163 7.26208H22.716C23.2284 7.26208 23.6254 7.17801 23.907 7.00987C24.1941 6.84173 24.3377 6.53907 24.3377 6.10191C24.3377 5.72079 24.2195 5.43775 23.983 5.25279C23.7465 5.06784 23.3776 4.97536 22.8765 4.97536H22.1163V7.26208Z" fill="black"/>
<path d="M27.1857 2.59957C26.0208 1.43065 24.4738 0.742672 22.8297 0.662423C21.2553 0.585807 19.7165 1.0697 18.4759 2.02777L18.1631 1.99178C17.2219 1.88342 15.2634 1.65804 14.8027 1.60272C14.1331 1.52225 13.4509 1.72354 12.9311 2.15502L8.9393 5.46891C8.29655 6.00254 7.83934 6.71154 7.61709 7.51939C7.17648 9.12101 6.35886 11.9497 5.78466 13.0882L4.03275 14.8462L3.91725 14.7303C3.73343 14.5459 3.48895 14.4442 3.22894 14.4442C2.96893 14.4442 2.72446 14.5458 2.54063 14.7303L0.896149 16.3806C0.516632 16.7614 0.516632 17.3811 0.896149 17.762L1.33236 18.1997C1.49174 18.3596 1.75019 18.3596 1.90957 18.1997C2.06895 18.0398 2.06895 17.7804 1.90957 17.6205L1.47336 17.1827C1.43332 17.1425 1.42736 17.0956 1.42736 17.0712C1.42736 17.0469 1.43332 16.9999 1.47336 16.9597L3.11784 15.3095C3.15788 15.2693 3.20466 15.2633 3.22894 15.2633C3.25322 15.2633 3.3 15.2693 3.34004 15.3095L3.74389 15.7148L6.31793 18.2979L9.29688 21.2873C9.33692 21.3275 9.34288 21.3744 9.34288 21.3988C9.34288 21.4232 9.33692 21.4701 9.29688 21.5103L7.6524 23.1605C7.61236 23.2007 7.56558 23.2067 7.5413 23.2067C7.51702 23.2067 7.47024 23.2007 7.4302 23.1605L3.75576 19.4732C3.59638 19.3133 3.33793 19.3133 3.17854 19.4732C3.01916 19.6332 3.01916 19.8925 3.17854 20.0525L6.85299 23.7398C7.04277 23.9302 7.29204 24.0254 7.5413 24.0254C7.79056 24.0254 8.03982 23.9302 8.22961 23.7398L9.87409 22.0895C10.0579 21.9051 10.1592 21.6597 10.1592 21.3988C10.1592 21.1379 10.058 20.8926 9.87409 20.7081L9.75664 20.5902L10.0122 20.3338C10.2319 20.1133 10.5059 19.9508 10.8044 19.864C10.81 19.8623 10.8155 19.8606 10.821 19.8588L13.8127 18.8479C14.8279 18.4984 15.7164 17.8671 16.3821 17.0222L17.8805 15.1206L21.8796 11.1075C22.0716 11.1446 21.3912 11.1075 21.3912 11.1075L21.2348 11.2306L20.8704 11.5897L21.4609 11.2306L21.8796 11.1075C21.8796 11.1075 23.6216 9.58879 22.5152 8.49612C21.8971 8.21603 21.6207 8.33824 21.6207 8.33824L20.6401 8.21603L21.8971 8.60493L21.8708 8.58835L21.3706 8.33824L21.5198 8.21027L21.3706 8.08813V8.33824C21.3706 8.33824 21.0052 8.28668 21.9479 8.62304C21.9479 8.62304 22.2937 8.54569 22.5152 8.49612C22.0688 8.08625 21.7576 7.95528 21.1524 7.92265C19.7686 7.84715 17.8569 8.62097 16.7992 9.68242C16.1247 10.3593 15.3587 11.1281 14.9365 11.5521C14.8055 11.6835 14.6302 11.7559 14.4428 11.7559H14.4276C14.1461 11.7559 13.757 11.4503 13.6502 11.1562L13.6499 7.12681L14.9875 6.02227L16.0448 5.85943C15.8372 6.80386 15.8362 7.78679 16.0458 8.73681C16.088 8.92782 16.2567 9.05792 16.4439 9.05792C16.4731 9.05792 16.5028 9.05474 16.5325 9.04814C16.7526 8.99924 16.8915 8.78057 16.8428 8.55972C16.6189 7.54493 16.6685 6.4875 16.9864 5.50049C16.9876 5.49702 16.9883 5.49333 16.9895 5.48987C16.9899 5.48858 16.9906 5.48741 16.991 5.48612C17.2754 4.61082 17.7508 3.8346 18.404 3.17908C18.5427 3.03993 18.6901 2.9062 18.8423 2.78147C18.8456 2.77901 18.8486 2.77616 18.8518 2.77359L18.8538 2.77214C19.9608 1.86968 21.3586 1.41104 22.7901 1.48089C24.2313 1.5512 25.5874 2.15429 26.6086 3.17908C27.7044 4.2787 28.3078 5.74062 28.3078 7.29569C28.3078 8.85076 27.7044 10.3127 26.6086 11.4124C25.1639 12.8622 23.0355 13.4449 21.0543 12.9331C20.8362 12.8767 20.6135 13.0086 20.5573 13.2277C20.5011 13.4467 20.6326 13.67 20.8509 13.7264C21.3927 13.8664 21.9496 13.9363 22.5065 13.9363C23.0751 13.9363 23.6438 13.8634 24.1962 13.7175C25.3234 13.42 26.3572 12.8231 27.1858 11.9916C28.4356 10.7369 29.124 9.06921 29.124 7.29535C29.124 5.52155 28.4356 3.85388 27.1857 2.59957ZM19.7017 12.1344L19.3183 11.7496C19.2492 11.6803 19.2112 11.5881 19.2112 11.4901C19.2112 11.3921 19.2492 11.2999 19.3183 11.2306L19.9861 10.5604C20.1996 10.3461 20.48 10.239 20.7605 10.239C20.9817 10.239 21.2028 10.3057 21.3912 10.439L19.7017 12.1344ZM16.298 4.9915L14.7528 5.22951C14.6802 5.24068 14.6121 5.27125 14.5554 5.31808L12.9824 6.61704C12.8882 6.69483 12.8336 6.81084 12.8336 6.93329L12.8339 11.2179C12.8339 11.2535 12.8385 11.2891 12.8477 11.3235C13.025 11.9901 13.7633 12.5748 14.4275 12.5748H14.4427C14.8483 12.5748 15.2287 12.4172 15.5138 12.1309C15.936 11.707 16.7019 10.9382 17.3763 10.2614C18.2745 9.3602 19.9485 8.67825 21.1085 8.74039C21.3733 8.7547 21.7251 8.81673 21.8971 9.03099C21.9063 9.04244 21.916 9.05334 21.9264 9.06368C22.0129 9.15052 22.2473 9.38624 21.9479 9.83487C21.1983 9.23748 20.1018 9.28593 19.409 9.98117L18.7412 10.6513C18.5179 10.8754 18.3949 11.1732 18.3949 11.4901C18.3949 11.8069 18.5179 12.1047 18.7412 12.3288L19.1246 12.7135L17.2865 14.5581C17.2753 14.5693 17.2648 14.5812 17.2549 14.5936L15.7418 16.514C15.1734 17.2354 14.4147 17.7745 13.55 18.0722L10.5685 19.0796C10.1415 19.2055 9.74979 19.4387 9.4351 19.7545L9.1796 20.0109L6.89525 17.7185L4.60991 15.4254L6.40687 13.6222C6.43599 13.5929 6.46055 13.5595 6.47971 13.5229C7.09044 12.3547 7.94749 9.39663 8.40391 7.73734C8.58139 7.09222 8.94649 6.52601 9.4596 6.10001L13.4514 2.78611C13.7996 2.49697 14.2567 2.36201 14.7056 2.41599C15.1102 2.46461 16.6597 2.64322 17.6722 2.75979C17.0644 3.4105 16.6033 4.15945 16.298 4.9915Z" fill="black"/>
</svg>
