<svg width="27" height="26" viewBox="0 0 27 26" fill="none" xmlns="http://www.w3.org/2000/svg">
<circle cx="16.7526" cy="13.6597" r="10.0044" fill="#FDDCD5"/>
<path d="M17.4676 21.7625H4.0261C3.8241 21.7625 3.6604 21.9282 3.6604 22.1328C3.6604 22.3374 3.8241 22.5032 4.0261 22.5032H17.4676C17.6696 22.5032 17.8333 22.3374 17.8333 22.1328C17.8333 21.9283 17.6696 21.7625 17.4676 21.7625Z" fill="black"/>
<path d="M17.3101 11.0227H4.11008C3.90809 11.0227 3.74438 11.1885 3.74438 11.3931C3.74438 11.5977 3.90809 11.7635 4.11008 11.7635H17.3101C17.5121 11.7635 17.6758 11.5976 17.6758 11.3931C17.6758 11.1885 17.5121 11.0227 17.3101 11.0227Z" fill="black"/>
<path d="M14.3088 14.584H4.11008C3.90809 14.584 3.74438 14.7498 3.74438 14.9544C3.74438 15.1589 3.90809 15.3247 4.11008 15.3247H14.3088C14.5108 15.3247 14.6745 15.1589 14.6745 14.9544C14.6745 14.7498 14.5108 14.584 14.3088 14.584Z" fill="black"/>
<path d="M12.3079 18.1455H4.11008C3.90809 18.1455 3.74438 18.3114 3.74438 18.5159C3.74438 18.7204 3.90809 18.8863 4.11008 18.8863H12.3079C12.5099 18.8863 12.6736 18.7204 12.6736 18.5159C12.6736 18.3114 12.5099 18.1455 12.3079 18.1455Z" fill="black"/>
<path d="M20.2514 6.91415C20.2513 6.90999 20.2511 6.90589 20.2508 6.90174C20.2497 6.88586 20.248 6.87013 20.245 6.85465C20.245 6.85455 20.245 6.85445 20.245 6.85435C20.2419 6.83862 20.2374 6.82329 20.2324 6.80814C20.2311 6.80438 20.2298 6.80067 20.2284 6.79691C20.2231 6.78245 20.2171 6.76823 20.21 6.75451C20.2097 6.75392 20.2095 6.75333 20.2092 6.75275C20.2017 6.73848 20.193 6.72495 20.1837 6.71176C20.1814 6.70859 20.1792 6.70541 20.1768 6.70229C20.167 6.68919 20.1565 6.67649 20.1449 6.66472L13.8234 0.262303C13.8118 0.25058 13.7993 0.240077 13.7865 0.23016C13.7832 0.227669 13.78 0.225227 13.7767 0.222833C13.7637 0.213503 13.7505 0.204808 13.7366 0.197285C13.7357 0.196796 13.7347 0.196454 13.7338 0.195966C13.7207 0.189029 13.707 0.183118 13.6932 0.177843C13.6893 0.176328 13.6853 0.174912 13.6814 0.173544C13.6667 0.168512 13.6518 0.164116 13.6365 0.161038C13.6357 0.160892 13.635 0.160843 13.6342 0.160696C13.6196 0.157863 13.6048 0.156153 13.5899 0.155128C13.5854 0.154834 13.5809 0.15459 13.5765 0.154444C13.5726 0.154248 13.5687 0.153809 13.5648 0.153809H2.83383C1.95702 0.153809 1.24371 0.876244 1.24371 1.76428V18.5082C1.24371 18.7127 1.40741 18.8786 1.60941 18.8786C1.81141 18.8786 1.97511 18.7127 1.97511 18.5082V1.76428C1.97511 1.28472 2.36034 0.894563 2.83383 0.894563H13.199V6.14931C13.199 6.7822 13.7074 7.29708 14.3323 7.29708H19.5207V9.33933C19.5207 9.54386 19.6844 9.70971 19.8863 9.70971C20.0883 9.70971 20.252 9.54386 20.252 9.33933V6.92665C20.252 6.92245 20.2516 6.91835 20.2514 6.91415ZM14.3323 6.55632C14.1107 6.55632 13.9305 6.37372 13.9305 6.14931V1.41838L19.0035 6.55632H14.3323Z" fill="black"/>
<path d="M19.8851 11.2959C19.6831 11.2959 19.5194 11.4617 19.5194 11.6663V23.5542C19.5194 24.0337 19.1341 24.4239 18.6606 24.4239H2.83255C2.35906 24.4239 1.97383 24.0337 1.97383 23.5542V20.8847C1.97383 20.6801 1.81013 20.5143 1.60813 20.5143C1.40613 20.5143 1.24243 20.6801 1.24243 20.8847V23.5542C1.24243 24.4422 1.95574 25.1646 2.83255 25.1646H18.6606C19.5374 25.1646 20.2507 24.4422 20.2507 23.5542V11.6663C20.2508 11.4617 20.0871 11.2959 19.8851 11.2959Z" fill="black"/>
<path d="M3.89529 8.15744V7.10936H3.2421V6.60844H3.89529V5.92257H3.2421V5.33688H3.89529V2.65503H5.30679C5.96249 2.65503 6.448 2.79118 6.76334 3.06347C7.08368 3.33577 7.24385 3.73136 7.24385 4.25027C7.24385 4.77431 7.07117 5.18532 6.7258 5.4833C6.38043 5.77615 5.87239 5.92257 5.20168 5.92257H4.57101V6.60844H5.80983V7.10936H4.57101V8.15744H3.89529ZM4.57101 5.33688H5.10408C5.55956 5.33688 5.91243 5.25981 6.1627 5.10568C6.41797 4.95155 6.54561 4.67412 6.54561 4.27339C6.54561 3.92403 6.4405 3.66458 6.23027 3.49503C6.02005 3.32549 5.6922 3.24072 5.24673 3.24072H4.57101V5.33688Z" fill="black"/>
</svg>
