<svg width="15" height="15" viewBox="0 0 15 15" fill="none" xmlns="http://www.w3.org/2000/svg">
<path d="M1.16444 7.06486C1.16444 3.7497 3.85191 1.06223 7.16707 1.06223V0.0617924C3.29938 0.0617924 0.164001 3.19717 0.164001 7.06486H1.16444ZM7.16707 1.06223C10.4822 1.06223 13.1697 3.7497 13.1697 7.06486H14.1701C14.1701 3.19717 11.0348 0.0617924 7.16707 0.0617924V1.06223ZM13.1697 7.06486C13.1697 10.38 10.4822 13.0675 7.16707 13.0675V14.0679C11.0348 14.0679 14.1701 10.9326 14.1701 7.06486H13.1697ZM7.16707 13.0675C3.85191 13.0675 1.16444 10.38 1.16444 7.06486H0.164001C0.164001 10.9326 3.29938 14.0679 7.16707 14.0679V13.0675Z" fill="black"/>
<path d="M9.94952 6.30054L7.16683 9.08323L4.38414 6.30054" stroke="black" stroke-width="1.00044"/>
</svg>
