<svg width="111" height="22" viewBox="0 0 111 22" fill="none" xmlns="http://www.w3.org/2000/svg">
<path d="M0.545898 10.2719L2.0976 8.72023L13.3474 19.9701L11.7957 21.5218L0.545898 10.2719Z" fill="#F64C2E"/>
<path d="M3.6493 7.16853L5.201 5.61683L16.4508 16.8667L14.8991 18.4184L3.6493 7.16853Z" fill="#F64C2E"/>
<path d="M6.7527 4.06513L8.3044 2.51343L19.5542 13.7633L18.0025 15.315L6.7527 4.06513Z" fill="#F64C2E"/>
<path d="M8.3044 21.5218L6.7527 19.9701L18.0025 8.72023L19.5542 10.2719L8.3044 21.5218Z" fill="#F64C2E"/>
<path d="M5.201 18.4184L3.6493 16.8667L14.8991 5.61683L16.4508 7.16853L5.201 18.4184Z" fill="#F64C2E"/>
<path d="M2.0976 15.315L0.545898 13.7633L11.7957 2.51343L13.3474 4.06513L2.0976 15.315Z" fill="#F64C2E"/>
<path d="M26.2078 10.7821C26.3346 10.9489 26.4479 11.0723 26.548 11.1523C26.648 11.2323 26.7681 11.2824 26.9081 11.3024V11.5125C26.508 11.4858 26.2379 11.4724 26.0978 11.4724C25.9177 11.4724 25.5475 11.4858 24.9873 11.5125V11.3024C25.0807 11.3024 25.154 11.2857 25.2074 11.2523C25.2674 11.2123 25.2974 11.1656 25.2974 11.1123C25.2974 11.0589 25.2774 11.0089 25.2374 10.9622L24.0869 9.28147C23.9735 9.11473 23.8635 9.00468 23.7568 8.95133C23.6567 8.8913 23.5167 8.85462 23.3366 8.84128V10.582C23.3366 10.8555 23.3833 11.0456 23.4766 11.1523C23.5767 11.2523 23.7501 11.3024 23.9969 11.3024V11.5125C23.4366 11.4858 23.0665 11.4724 22.8864 11.4724C22.693 11.4724 22.2895 11.4858 21.6759 11.5125V11.3024C21.956 11.3024 22.1527 11.2523 22.2661 11.1523C22.3795 11.0456 22.4362 10.8555 22.4362 10.582V4.86954C22.4362 4.56274 22.3795 4.33931 22.2661 4.19924C22.1527 4.05918 21.956 3.98915 21.6759 3.98915V3.77906C21.8893 3.79907 22.096 3.80907 22.2961 3.80907C22.7163 3.80907 23.0631 3.76239 23.3366 3.66901V8.63119C23.53 8.60451 23.6901 8.56116 23.8168 8.50113C23.9502 8.43443 24.0769 8.34106 24.197 8.22101L24.9373 7.45067C25.1507 7.23057 25.2574 7.04716 25.2574 6.90043C25.2574 6.78705 25.1874 6.70368 25.0473 6.65032C24.9139 6.59029 24.7372 6.56028 24.5171 6.56028V6.36019C24.984 6.38687 25.3608 6.40021 25.6476 6.40021C25.9611 6.40021 26.2512 6.38687 26.518 6.36019V6.56028C26.1912 6.58696 25.891 6.74369 25.6176 7.03049L24.397 8.31105L26.2078 10.7821ZM28.5092 11.5825C28.0891 11.5825 27.7756 11.4791 27.5688 11.2723C27.3687 11.0589 27.2687 10.7655 27.2687 10.392C27.2687 10.0918 27.3487 9.84505 27.5088 9.65164C27.6755 9.45822 27.869 9.30482 28.0891 9.19143C28.3158 9.07805 28.6126 8.958 28.9794 8.83128C29.3529 8.70455 29.6297 8.58784 29.8098 8.48112C29.9899 8.37441 30.0799 8.23101 30.0799 8.05093V7.43066C30.0799 7.04383 29.9966 6.78038 29.8298 6.64032C29.6697 6.49358 29.443 6.42022 29.1495 6.42022C28.6826 6.42022 28.3525 6.54027 28.1591 6.78038C28.2925 6.81372 28.4025 6.88376 28.4892 6.99047C28.5826 7.09718 28.6293 7.23057 28.6293 7.39064C28.6293 7.55738 28.5759 7.69078 28.4692 7.79082C28.3625 7.88419 28.2258 7.93088 28.059 7.93088C27.8723 7.93088 27.7322 7.87419 27.6389 7.76081C27.5455 7.64075 27.4988 7.49736 27.4988 7.33062C27.4988 7.17055 27.5355 7.03716 27.6088 6.93044C27.6889 6.82373 27.8056 6.71702 27.959 6.6103C28.1191 6.49692 28.3225 6.40354 28.5693 6.33018C28.816 6.25681 29.0862 6.22013 29.3796 6.22013C29.8998 6.22013 30.2934 6.34352 30.5601 6.59029C30.7269 6.74369 30.8369 6.93044 30.8903 7.15054C30.9503 7.36397 30.9803 7.64742 30.9803 8.00091V10.7821C30.9803 10.9489 31.0037 11.0689 31.0504 11.1423C31.097 11.2157 31.1771 11.2523 31.2905 11.2523C31.3705 11.2523 31.4439 11.2357 31.5106 11.2023C31.5839 11.1623 31.6606 11.1089 31.7407 11.0422L31.8507 11.2123C31.6773 11.3457 31.5272 11.4424 31.4005 11.5024C31.2805 11.5558 31.1271 11.5825 30.9403 11.5825C30.6202 11.5825 30.3967 11.5024 30.27 11.3424C30.1433 11.1823 30.0799 10.9655 30.0799 10.6921C29.8798 11.0256 29.6497 11.259 29.3896 11.3924C29.1295 11.5191 28.836 11.5825 28.5092 11.5825ZM28.9494 11.1823C29.3896 11.1823 29.7665 10.9289 30.0799 10.422V8.46111C30.0199 8.55449 29.9365 8.63119 29.8298 8.69121C29.7231 8.75124 29.5597 8.83128 29.3396 8.93132C29.0862 9.03803 28.8794 9.14141 28.7193 9.24146C28.5659 9.33483 28.4325 9.46489 28.3192 9.63163C28.2058 9.79837 28.1491 10.0118 28.1491 10.2719C28.1491 10.572 28.2224 10.7988 28.3692 10.9522C28.5159 11.1056 28.7093 11.1823 28.9494 11.1823ZM35.2627 6.22013C35.5295 6.22013 35.7462 6.29683 35.913 6.45023C36.0864 6.60363 36.1731 6.79038 36.1731 7.01048C36.1731 7.18389 36.1197 7.33395 36.013 7.46067C35.913 7.58073 35.7762 7.64075 35.6028 7.64075C35.4561 7.64075 35.3294 7.59407 35.2226 7.50069C35.1226 7.40732 35.0726 7.2806 35.0726 7.12053C35.0726 6.90043 35.186 6.72035 35.4127 6.58029C35.366 6.51359 35.296 6.48024 35.2026 6.48024C34.9425 6.48024 34.7058 6.58362 34.4923 6.79038C34.2789 6.99047 34.1122 7.23724 33.9921 7.53071C33.8721 7.82417 33.812 8.10096 33.812 8.36107V10.482C33.812 10.7888 33.8987 11.0022 34.0721 11.1223C34.2522 11.2423 34.519 11.3024 34.8725 11.3024V11.5125L34.6324 11.5024C33.9521 11.4824 33.5186 11.4724 33.3318 11.4724C33.1584 11.4724 32.7649 11.4858 32.1513 11.5125V11.3024C32.4314 11.3024 32.6282 11.2523 32.7416 11.1523C32.8549 11.0456 32.9116 10.8555 32.9116 10.582V7.45067C32.9116 7.14387 32.8549 6.92044 32.7416 6.78038C32.6282 6.64032 32.4314 6.57028 32.1513 6.57028V6.36019C32.3647 6.3802 32.5715 6.39021 32.7716 6.39021C33.1918 6.39021 33.5386 6.34352 33.812 6.25014V7.50069C33.9321 7.16721 34.1222 6.87042 34.3823 6.6103C34.6491 6.35019 34.9425 6.22013 35.2627 6.22013ZM39.7177 6.22013C39.9845 6.22013 40.2013 6.29683 40.368 6.45023C40.5414 6.60363 40.6281 6.79038 40.6281 7.01048C40.6281 7.18389 40.5748 7.33395 40.4681 7.46067C40.368 7.58073 40.2313 7.64075 40.0579 7.64075C39.9112 7.64075 39.7844 7.59407 39.6777 7.50069C39.5777 7.40732 39.5277 7.2806 39.5277 7.12053C39.5277 6.90043 39.641 6.72035 39.8678 6.58029C39.8211 6.51359 39.7511 6.48024 39.6577 6.48024C39.3976 6.48024 39.1608 6.58362 38.9474 6.79038C38.734 6.99047 38.5672 7.23724 38.4472 7.53071C38.3271 7.82417 38.2671 8.10096 38.2671 8.36107V10.482C38.2671 10.7888 38.3538 11.0022 38.5272 11.1223C38.7073 11.2423 38.9741 11.3024 39.3276 11.3024V11.5125L39.0875 11.5024C38.4072 11.4824 37.9736 11.4724 37.7869 11.4724C37.6135 11.4724 37.22 11.4858 36.6064 11.5125V11.3024C36.8865 11.3024 37.0833 11.2523 37.1966 11.1523C37.31 11.0456 37.3667 10.8555 37.3667 10.582V7.45067C37.3667 7.14387 37.31 6.92044 37.1966 6.78038C37.0833 6.64032 36.8865 6.57028 36.6064 6.57028V6.36019C36.8198 6.3802 37.0266 6.39021 37.2267 6.39021C37.6468 6.39021 37.9937 6.34352 38.2671 6.25014V7.50069C38.3872 7.16721 38.5772 6.87042 38.8374 6.6103C39.1041 6.35019 39.3976 6.22013 39.7177 6.22013ZM48.7448 10.582C48.7448 10.8555 48.8015 11.0456 48.9149 11.1523C49.0283 11.2523 49.225 11.3024 49.5052 11.3024V11.5125C48.8916 11.4858 48.4914 11.4724 48.3046 11.4724C48.1179 11.4724 47.7444 11.4858 47.1841 11.5125V11.3024C47.4309 11.3024 47.601 11.2523 47.6944 11.1523C47.7944 11.0456 47.8444 10.8555 47.8444 10.582V7.69078C47.8444 7.43733 47.8278 7.23391 47.7944 7.08051C47.7677 6.92044 47.6977 6.79038 47.5843 6.69034C47.4776 6.59029 47.3109 6.54027 47.0841 6.54027C46.8307 6.54027 46.6006 6.62031 46.3938 6.78038C46.187 6.94045 46.0236 7.16054 45.9036 7.44067C45.7902 7.71412 45.7335 8.01759 45.7335 8.35107V10.582C45.7335 10.8555 45.7902 11.0456 45.9036 11.1523C46.017 11.2523 46.2137 11.3024 46.4938 11.3024V11.5125C45.8802 11.4858 45.4801 11.4724 45.2933 11.4724C45.1066 11.4724 44.7331 11.4858 44.1728 11.5125V11.3024C44.4196 11.3024 44.5897 11.2523 44.683 11.1523C44.7831 11.0456 44.8331 10.8555 44.8331 10.582V7.69078C44.8331 7.43733 44.8164 7.23391 44.7831 7.08051C44.7564 6.92044 44.6864 6.79038 44.573 6.69034C44.4663 6.59029 44.2995 6.54027 44.0728 6.54027C43.8193 6.54027 43.5892 6.62031 43.3825 6.78038C43.1757 6.94045 43.0123 7.16054 42.8923 7.44067C42.7789 7.72079 42.7222 8.02759 42.7222 8.36107V10.582C42.7222 10.8555 42.7689 11.0456 42.8622 11.1523C42.9623 11.2523 43.1357 11.3024 43.3825 11.3024V11.5125C42.8222 11.4858 42.4487 11.4724 42.262 11.4724C42.0752 11.4724 41.6751 11.4858 41.0615 11.5125V11.3024C41.3416 11.3024 41.5383 11.2523 41.6517 11.1523C41.7651 11.0456 41.8218 10.8555 41.8218 10.582V7.45067C41.8218 7.14387 41.7651 6.92044 41.6517 6.78038C41.5383 6.64032 41.3416 6.57028 41.0615 6.57028V6.36019C41.2749 6.3802 41.4816 6.39021 41.6817 6.39021C42.1019 6.39021 42.4487 6.34352 42.7222 6.25014V7.43066C42.8823 7.01715 43.109 6.71368 43.4025 6.52026C43.6959 6.32017 44.0161 6.22013 44.3629 6.22013C44.8164 6.22013 45.1633 6.34685 45.4034 6.6003C45.5701 6.77371 45.6735 7.04049 45.7135 7.40065C45.8802 6.98046 46.1103 6.68033 46.4038 6.50025C46.6973 6.3135 47.0207 6.22013 47.3742 6.22013C47.8278 6.22013 48.1746 6.34685 48.4147 6.6003C48.5347 6.73369 48.6181 6.90376 48.6648 7.11052C48.7181 7.31728 48.7448 7.58406 48.7448 7.91087V10.582ZM51.2829 11.5825C50.8627 11.5825 50.5492 11.4791 50.3425 11.2723C50.1424 11.0589 50.0423 10.7655 50.0423 10.392C50.0423 10.0918 50.1224 9.84505 50.2825 9.65164C50.4492 9.45822 50.6426 9.30482 50.8627 9.19143C51.0895 9.07805 51.3863 8.958 51.7531 8.83128C52.1266 8.70455 52.4034 8.58784 52.5835 8.48112C52.7635 8.37441 52.8536 8.23101 52.8536 8.05093V7.43066C52.8536 7.04383 52.7702 6.78038 52.6035 6.64032C52.4434 6.49358 52.2166 6.42022 51.9232 6.42022C51.4563 6.42022 51.1262 6.54027 50.9327 6.78038C51.0661 6.81372 51.1762 6.88376 51.2629 6.99047C51.3563 7.09718 51.4029 7.23057 51.4029 7.39064C51.4029 7.55738 51.3496 7.69078 51.2429 7.79082C51.1362 7.88419 50.9994 7.93088 50.8327 7.93088C50.6459 7.93088 50.5059 7.87419 50.4125 7.76081C50.3191 7.64075 50.2724 7.49736 50.2724 7.33062C50.2724 7.17055 50.3091 7.03716 50.3825 6.93044C50.4625 6.82373 50.5793 6.71702 50.7327 6.6103C50.8927 6.49692 51.0961 6.40354 51.3429 6.33018C51.5897 6.25681 51.8598 6.22013 52.1533 6.22013C52.6735 6.22013 53.067 6.34352 53.3338 6.59029C53.5005 6.74369 53.6106 6.93044 53.6639 7.15054C53.724 7.36397 53.754 7.64742 53.754 8.00091V10.7821C53.754 10.9489 53.7773 11.0689 53.824 11.1423C53.8707 11.2157 53.9507 11.2523 54.0641 11.2523C54.1441 11.2523 54.2175 11.2357 54.2842 11.2023C54.3576 11.1623 54.4343 11.1089 54.5143 11.0422L54.6244 11.2123C54.4509 11.3457 54.3009 11.4424 54.1742 11.5024C54.0541 11.5558 53.9007 11.5825 53.714 11.5825C53.3938 11.5825 53.1704 11.5024 53.0437 11.3424C52.9169 11.1823 52.8536 10.9655 52.8536 10.6921C52.6535 11.0256 52.4234 11.259 52.1633 11.3924C51.9032 11.5191 51.6097 11.5825 51.2829 11.5825ZM51.7231 11.1823C52.1633 11.1823 52.5401 10.9289 52.8536 10.422V8.46111C52.7936 8.55449 52.7102 8.63119 52.6035 8.69121C52.4968 8.75124 52.3334 8.83128 52.1133 8.93132C51.8598 9.03803 51.6531 9.14141 51.493 9.24146C51.3396 9.33483 51.2062 9.46489 51.0928 9.63163C50.9794 9.79837 50.9227 10.0118 50.9227 10.2719C50.9227 10.572 50.9961 10.7988 51.1428 10.9522C51.2896 11.1056 51.483 11.1823 51.7231 11.1823Z" fill="black"/>
<path d="M23.1759 15.7519H23.9322L25.557 13.5459H26.1172L24.3734 15.9409L26.2993 18.5181H25.739L23.9743 16.186H23.1759V18.5181H22.6927V13.5459H23.1759V15.7519ZM28.225 18.5881C27.9589 18.5881 27.7161 18.5391 27.4967 18.441C27.2773 18.3383 27.0858 18.2006 26.9224 18.0279C26.7637 17.8551 26.64 17.6544 26.5513 17.4256C26.4626 17.1968 26.4182 16.9564 26.4182 16.7043C26.4182 16.4475 26.4626 16.2047 26.5513 15.976C26.6447 15.7472 26.7707 15.5464 26.9294 15.3737C27.0929 15.2009 27.2843 15.0632 27.5037 14.9605C27.7231 14.8578 27.9636 14.8064 28.225 14.8064C28.4865 14.8064 28.7269 14.8578 28.9463 14.9605C29.1704 15.0632 29.3618 15.2009 29.5206 15.3737C29.684 15.5464 29.81 15.7472 29.8987 15.976C29.9921 16.2047 30.0388 16.4475 30.0388 16.7043C30.0388 16.9564 29.9945 17.1968 29.9058 17.4256C29.817 17.6544 29.691 17.8551 29.5276 18.0279C29.3689 18.2006 29.1774 18.3383 28.9533 18.441C28.7339 18.5391 28.4911 18.5881 28.225 18.5881ZM26.9014 16.7113C26.9014 16.9167 26.9365 17.1081 27.0065 17.2855C27.0765 17.4583 27.1699 17.6123 27.2866 17.7477C27.408 17.8785 27.5481 17.9812 27.7068 18.0559C27.8702 18.1306 28.0429 18.1679 28.225 18.1679C28.4071 18.1679 28.5775 18.1306 28.7362 18.0559C28.8996 17.9765 29.042 17.8714 29.1634 17.7407C29.2848 17.6053 29.3805 17.4489 29.4506 17.2715C29.5206 17.0941 29.5556 16.9027 29.5556 16.6973C29.5556 16.4965 29.5206 16.3074 29.4506 16.13C29.3805 15.9479 29.2848 15.7915 29.1634 15.6608C29.042 15.5254 28.8996 15.4204 28.7362 15.3457C28.5775 15.2663 28.4071 15.2266 28.225 15.2266C28.0429 15.2266 27.8725 15.2663 27.7138 15.3457C27.5551 15.4204 27.415 15.5254 27.2936 15.6608C27.1722 15.7962 27.0765 15.9549 27.0065 16.137C26.9365 16.3144 26.9014 16.5059 26.9014 16.7113ZM32.7051 18.5881C32.3969 18.5881 32.1238 18.5111 31.8857 18.357C31.6523 18.1983 31.4632 17.9998 31.3185 17.7617V20.0097H30.8422V14.8695H31.2694V15.5768C31.4188 15.348 31.6126 15.1636 31.8507 15.0235C32.0888 14.8788 32.3479 14.8064 32.628 14.8064C32.8801 14.8064 33.1112 14.8601 33.3213 14.9675C33.5314 15.0702 33.7135 15.2103 33.8676 15.3877C34.0216 15.5604 34.1407 15.7612 34.2247 15.99C34.3134 16.2187 34.3578 16.4545 34.3578 16.6973C34.3578 16.954 34.3181 17.1968 34.2387 17.4256C34.1594 17.6544 34.045 17.8551 33.8956 18.0279C33.7509 18.2006 33.5758 18.3383 33.3704 18.441C33.1696 18.5391 32.9478 18.5881 32.7051 18.5881ZM32.572 18.1679C32.7681 18.1679 32.9455 18.1259 33.1042 18.0419C33.2676 17.9578 33.4054 17.8481 33.5174 17.7127C33.6341 17.5727 33.7228 17.4163 33.7835 17.2435C33.8442 17.0661 33.8746 16.884 33.8746 16.6973C33.8746 16.5012 33.8396 16.3144 33.7695 16.137C33.6995 15.9596 33.6038 15.8032 33.4824 15.6678C33.361 15.5324 33.2163 15.425 33.0482 15.3457C32.8848 15.2663 32.7074 15.2266 32.516 15.2266C32.3946 15.2266 32.2662 15.2523 32.1308 15.3037C32.0001 15.3503 31.8764 15.4157 31.7597 15.4997C31.6476 15.5791 31.5496 15.6748 31.4655 15.7869C31.3862 15.8942 31.3371 16.0086 31.3185 16.13V17.2505C31.3745 17.3812 31.4445 17.5026 31.5285 17.6147C31.6173 17.7267 31.7153 17.8248 31.8227 17.9088C31.9347 17.9882 32.0538 18.0512 32.1798 18.0979C32.3059 18.1446 32.4366 18.1679 32.572 18.1679ZM37.041 18.5881C36.7328 18.5881 36.4597 18.5111 36.2216 18.357C35.9882 18.1983 35.7991 17.9998 35.6543 17.7617V20.0097H35.1781V14.8695H35.6053V15.5768C35.7547 15.348 35.9485 15.1636 36.1866 15.0235C36.4247 14.8788 36.6838 14.8064 36.9639 14.8064C37.216 14.8064 37.4471 14.8601 37.6572 14.9675C37.8673 15.0702 38.0494 15.2103 38.2035 15.3877C38.3575 15.5604 38.4766 15.7612 38.5606 15.99C38.6493 16.2187 38.6937 16.4545 38.6937 16.6973C38.6937 16.954 38.654 17.1968 38.5746 17.4256C38.4953 17.6544 38.3809 17.8551 38.2315 18.0279C38.0867 18.2006 37.9117 18.3383 37.7062 18.441C37.5055 18.5391 37.2837 18.5881 37.041 18.5881ZM36.9079 18.1679C37.104 18.1679 37.2814 18.1259 37.4401 18.0419C37.6035 17.9578 37.7413 17.8481 37.8533 17.7127C37.97 17.5727 38.0587 17.4163 38.1194 17.2435C38.1801 17.0661 38.2105 16.884 38.2105 16.6973C38.2105 16.5012 38.1754 16.3144 38.1054 16.137C38.0354 15.9596 37.9397 15.8032 37.8183 15.6678C37.6969 15.5324 37.5522 15.425 37.3841 15.3457C37.2207 15.2663 37.0433 15.2266 36.8519 15.2266C36.7305 15.2266 36.6021 15.2523 36.4667 15.3037C36.336 15.3503 36.2123 15.4157 36.0955 15.4997C35.9835 15.5791 35.8854 15.6748 35.8014 15.7869C35.722 15.8942 35.673 16.0086 35.6543 16.13V17.2505C35.7104 17.3812 35.7804 17.5026 35.8644 17.6147C35.9531 17.7267 36.0512 17.8248 36.1586 17.9088C36.2706 17.9882 36.3897 18.0512 36.5157 18.0979C36.6418 18.1446 36.7725 18.1679 36.9079 18.1679ZM41.0827 18.5881C40.8166 18.5881 40.5715 18.5391 40.3474 18.441C40.128 18.3383 39.9365 18.2006 39.7731 18.0279C39.6097 17.8504 39.4813 17.6474 39.388 17.4186C39.2993 17.1898 39.2549 16.9447 39.2549 16.6833C39.2549 16.4265 39.2993 16.186 39.388 15.9619C39.4813 15.7332 39.6074 15.5348 39.7661 15.3667C39.9295 15.1939 40.1233 15.0585 40.3474 14.9605C40.5715 14.8578 40.8143 14.8064 41.0757 14.8064C41.3418 14.8064 41.5846 14.8578 41.804 14.9605C42.0281 15.0585 42.2195 15.1939 42.3783 15.3667C42.537 15.5394 42.6607 15.7378 42.7494 15.9619C42.8381 16.186 42.8825 16.4241 42.8825 16.6763C42.8825 16.7136 42.8825 16.751 42.8825 16.7883C42.8825 16.8257 42.8802 16.8513 42.8755 16.8653H39.7521C39.7661 17.0614 39.8105 17.2435 39.8852 17.4116C39.9645 17.575 40.0649 17.7174 40.1863 17.8388C40.3077 17.9602 40.4454 18.0559 40.5995 18.1259C40.7582 18.1913 40.9263 18.2239 41.1037 18.2239C41.2204 18.2239 41.3372 18.2076 41.4539 18.1749C41.5706 18.1422 41.678 18.0979 41.776 18.0419C41.8741 17.9858 41.9628 17.9181 42.0421 17.8388C42.1215 17.7547 42.1822 17.6637 42.2242 17.5656L42.6374 17.6777C42.5814 17.8131 42.502 17.9368 42.3993 18.0489C42.2966 18.1562 42.1775 18.2519 42.0421 18.336C41.9067 18.4154 41.7573 18.476 41.5939 18.5181C41.4305 18.5648 41.2601 18.5881 41.0827 18.5881ZM42.4273 16.5012C42.4133 16.3051 42.3666 16.1277 42.2872 15.9689C42.2125 15.8055 42.1145 15.6655 41.9931 15.5488C41.8764 15.432 41.7387 15.341 41.5799 15.2756C41.4259 15.2103 41.2601 15.1776 41.0827 15.1776C40.9053 15.1776 40.7372 15.2103 40.5785 15.2756C40.4197 15.341 40.2797 15.432 40.1583 15.5488C40.0416 15.6655 39.9459 15.8055 39.8712 15.9689C39.8011 16.1324 39.7591 16.3098 39.7451 16.5012H42.4273ZM45.7812 14.8695H46.3134L44.9338 16.6342L46.4325 18.5181H45.9002L44.6117 16.8513H44.0934V18.5181H43.6242V14.8695H44.0934V16.4802H44.5696L45.7812 14.8695ZM48.3749 18.5181H47.9127V15.2826H46.6312V14.8695H49.6565V15.2826H48.3749V18.5181ZM50.8024 17.8458L52.9804 14.8695H53.3655V18.5181H52.8963V15.5978L50.7604 18.5181H50.3332V14.8695H50.8024V17.8458ZM56.2994 18.5881C55.9913 18.5881 55.7181 18.5111 55.48 18.357C55.2466 18.1983 55.0575 17.9998 54.9128 17.7617V20.0097H54.4366V14.8695H54.8638V15.5768C55.0132 15.348 55.2069 15.1636 55.445 15.0235C55.6831 14.8788 55.9422 14.8064 56.2224 14.8064C56.4745 14.8064 56.7056 14.8601 56.9157 14.9675C57.1258 15.0702 57.3078 15.2103 57.4619 15.3877C57.616 15.5604 57.735 15.7612 57.8191 15.99C57.9078 16.2187 57.9521 16.4545 57.9521 16.6973C57.9521 16.954 57.9124 17.1968 57.8331 17.4256C57.7537 17.6544 57.6393 17.8551 57.4899 18.0279C57.3452 18.2006 57.1701 18.3383 56.9647 18.441C56.7639 18.5391 56.5422 18.5881 56.2994 18.5881ZM56.1663 18.1679C56.3624 18.1679 56.5398 18.1259 56.6986 18.0419C56.862 17.9578 56.9997 17.8481 57.1117 17.7127C57.2285 17.5727 57.3172 17.4163 57.3779 17.2435C57.4386 17.0661 57.4689 16.884 57.4689 16.6973C57.4689 16.5012 57.4339 16.3144 57.3639 16.137C57.2938 15.9596 57.1981 15.8032 57.0767 15.6678C56.9553 15.5324 56.8106 15.425 56.6425 15.3457C56.4791 15.2663 56.3017 15.2266 56.1103 15.2266C55.9889 15.2266 55.8605 15.2523 55.7251 15.3037C55.5944 15.3503 55.4707 15.4157 55.354 15.4997C55.2419 15.5791 55.1439 15.6748 55.0598 15.7869C54.9805 15.8942 54.9315 16.0086 54.9128 16.13V17.2505C54.9688 17.3812 55.0388 17.5026 55.1229 17.6147C55.2116 17.7267 55.3096 17.8248 55.417 17.9088C55.5291 17.9882 55.6481 18.0512 55.7742 18.0979C55.9002 18.1446 56.0309 18.1679 56.1663 18.1679ZM58.6424 19.4845C58.7124 19.5499 58.7824 19.5942 58.8524 19.6175C58.9225 19.6409 58.9972 19.6526 59.0765 19.6526C59.1372 19.6526 59.1956 19.6339 59.2516 19.5965C59.3123 19.5639 59.3707 19.5032 59.4267 19.4145C59.4874 19.3304 59.5481 19.216 59.6088 19.0713C59.6695 18.9266 59.7372 18.7422 59.8119 18.5181L58.2222 14.8695H58.7124L60.064 18.0769L61.3175 14.8695H61.7727L60.071 19.1203C60.001 19.3024 59.9286 19.4541 59.8539 19.5755C59.7839 19.6969 59.7092 19.795 59.6298 19.8697C59.5551 19.9444 59.4734 19.9957 59.3847 20.0237C59.3006 20.0564 59.2073 20.0727 59.1046 20.0727C58.8945 20.0727 58.7334 20.0167 58.6213 19.9047L58.6424 19.4845ZM63.5094 16.4732C63.5281 16.2211 63.5818 15.9923 63.6705 15.7869C63.7639 15.5768 63.8829 15.3994 64.0277 15.2546C64.1724 15.1099 64.3405 14.9979 64.5319 14.9185C64.7233 14.8391 64.9287 14.7994 65.1482 14.7994C65.4003 14.7994 65.629 14.8485 65.8345 14.9465C66.0445 15.0399 66.222 15.1729 66.3667 15.3457C66.5161 15.5137 66.6305 15.7145 66.7098 15.9479C66.7939 16.1814 66.8359 16.4335 66.8359 16.7043C66.8359 16.9937 66.7915 17.2552 66.7028 17.4886C66.6188 17.7174 66.4997 17.9135 66.3457 18.0769C66.1963 18.2403 66.0189 18.3663 65.8134 18.455C65.608 18.5437 65.3839 18.5881 65.1412 18.5881C64.9077 18.5881 64.6953 18.5484 64.5039 18.469C64.3125 18.385 64.1444 18.2706 63.9996 18.1259C63.8596 17.9765 63.7475 17.7968 63.6635 17.5867C63.5795 17.3766 63.5281 17.1455 63.5094 16.8934H62.9072V18.5181H62.445V14.8695H62.9072V16.4732H63.5094ZM63.9716 16.6973C63.9716 17.1641 64.079 17.526 64.2938 17.7827C64.5085 18.0395 64.7933 18.1679 65.1482 18.1679C65.3349 18.1679 65.503 18.1329 65.6524 18.0629C65.8064 17.9928 65.9348 17.8948 66.0375 17.7687C66.1403 17.638 66.2196 17.4839 66.2756 17.3065C66.3317 17.1245 66.3597 16.9214 66.3597 16.6973C66.3597 16.2351 66.2476 15.8756 66.0235 15.6188C65.7994 15.3573 65.5076 15.2266 65.1482 15.2266C64.9661 15.2266 64.8027 15.2616 64.6579 15.3317C64.5132 15.4017 64.3895 15.5021 64.2868 15.6328C64.1841 15.7589 64.1047 15.9129 64.0487 16.095C63.9973 16.2771 63.9716 16.4778 63.9716 16.6973ZM67.6494 14.8695H68.1186V18.1049H69.4912V14.8695H69.9604V18.1049H71.333V14.8695H71.8022V18.1049H72.4115V19.6456H71.9983V18.5181H67.6494V14.8695ZM73.535 17.8458L75.713 14.8695H76.0982V18.5181H75.629V15.5978L73.493 18.5181H73.0658V14.8695H73.535V17.8458ZM78.7379 18.5881C78.4718 18.5881 78.2267 18.5391 78.0026 18.441C77.7831 18.3383 77.5917 18.2006 77.4283 18.0279C77.2649 17.8504 77.1365 17.6474 77.0431 17.4186C76.9544 17.1898 76.9101 16.9447 76.9101 16.6833C76.9101 16.4265 76.9544 16.186 77.0431 15.9619C77.1365 15.7332 77.2626 15.5348 77.4213 15.3667C77.5847 15.1939 77.7785 15.0585 78.0026 14.9605C78.2267 14.8578 78.4694 14.8064 78.7309 14.8064C78.997 14.8064 79.2398 14.8578 79.4592 14.9605C79.6833 15.0585 79.8747 15.1939 80.0335 15.3667C80.1922 15.5394 80.3159 15.7378 80.4046 15.9619C80.4933 16.186 80.5377 16.4241 80.5377 16.6763C80.5377 16.7136 80.5377 16.751 80.5377 16.7883C80.5377 16.8257 80.5353 16.8513 80.5307 16.8653H77.4073C77.4213 17.0614 77.4657 17.2435 77.5404 17.4116C77.6197 17.575 77.7201 17.7174 77.8415 17.8388C77.9629 17.9602 78.1006 18.0559 78.2547 18.1259C78.4134 18.1913 78.5815 18.2239 78.7589 18.2239C78.8756 18.2239 78.9923 18.2076 79.109 18.1749C79.2258 18.1422 79.3331 18.0979 79.4312 18.0419C79.5292 17.9858 79.6179 17.9181 79.6973 17.8388C79.7767 17.7547 79.8374 17.6637 79.8794 17.5656L80.2926 17.6777C80.2365 17.8131 80.1572 17.9368 80.0545 18.0489C79.9517 18.1562 79.8327 18.2519 79.6973 18.336C79.5619 18.4154 79.4125 18.476 79.2491 18.5181C79.0857 18.5648 78.9153 18.5881 78.7379 18.5881ZM80.0825 16.5012C80.0685 16.3051 80.0218 16.1277 79.9424 15.9689C79.8677 15.8055 79.7697 15.6655 79.6483 15.5488C79.5316 15.432 79.3938 15.341 79.2351 15.2756C79.081 15.2103 78.9153 15.1776 78.7379 15.1776C78.5605 15.1776 78.3924 15.2103 78.2337 15.2756C78.0749 15.341 77.9349 15.432 77.8135 15.5488C77.6968 15.6655 77.6011 15.8055 77.5264 15.9689C77.4563 16.1324 77.4143 16.3098 77.4003 16.5012H80.0825ZM85.2213 14.8695H85.7535L84.3739 16.6342L85.8726 18.5181H85.3404L84.0518 16.8513H83.5336V18.5181H83.0644V14.8695H83.5336V16.4802H84.0098L85.2213 14.8695ZM88.3193 18.5881C88.0112 18.5881 87.738 18.5111 87.4999 18.357C87.2665 18.1983 87.0774 17.9998 86.9327 17.7617V20.0097H86.4565V14.8695H86.8837V15.5768C87.0331 15.348 87.2268 15.1636 87.4649 15.0235C87.703 14.8788 87.9621 14.8064 88.2423 14.8064C88.4944 14.8064 88.7255 14.8601 88.9356 14.9675C89.1456 15.0702 89.3277 15.2103 89.4818 15.3877C89.6359 15.5604 89.7549 15.7612 89.839 15.99C89.9277 16.2187 89.972 16.4545 89.972 16.6973C89.972 16.954 89.9323 17.1968 89.853 17.4256C89.7736 17.6544 89.6592 17.8551 89.5098 18.0279C89.3651 18.2006 89.19 18.3383 88.9846 18.441C88.7838 18.5391 88.5621 18.5881 88.3193 18.5881ZM88.1862 18.1679C88.3823 18.1679 88.5597 18.1259 88.7185 18.0419C88.8819 17.9578 89.0196 17.8481 89.1316 17.7127C89.2484 17.5727 89.3371 17.4163 89.3978 17.2435C89.4585 17.0661 89.4888 16.884 89.4888 16.6973C89.4888 16.5012 89.4538 16.3144 89.3838 16.137C89.3137 15.9596 89.218 15.8032 89.0966 15.6678C88.9752 15.5324 88.8305 15.425 88.6624 15.3457C88.499 15.2663 88.3216 15.2266 88.1302 15.2266C88.0088 15.2266 87.8804 15.2523 87.745 15.3037C87.6143 15.3503 87.4906 15.4157 87.3739 15.4997C87.2618 15.5791 87.1638 15.6748 87.0797 15.7869C87.0004 15.8942 86.9514 16.0086 86.9327 16.13V17.2505C86.9887 17.3812 87.0587 17.5026 87.1428 17.6147C87.2315 17.7267 87.3295 17.8248 87.4369 17.9088C87.5489 17.9882 87.668 18.0512 87.7941 18.0979C87.9201 18.1446 88.0508 18.1679 88.1862 18.1679ZM92.361 18.5881C92.0949 18.5881 91.8498 18.5391 91.6257 18.441C91.4063 18.3383 91.2149 18.2006 91.0515 18.0279C90.8881 17.8504 90.7597 17.6474 90.6663 17.4186C90.5776 17.1898 90.5332 16.9447 90.5332 16.6833C90.5332 16.4265 90.5776 16.186 90.6663 15.9619C90.7597 15.7332 90.8857 15.5348 91.0445 15.3667C91.2079 15.1939 91.4016 15.0585 91.6257 14.9605C91.8498 14.8578 92.0926 14.8064 92.354 14.8064C92.6202 14.8064 92.8629 14.8578 93.0824 14.9605C93.3065 15.0585 93.4979 15.1939 93.6566 15.3667C93.8153 15.5394 93.9391 15.7378 94.0278 15.9619C94.1165 16.186 94.1608 16.4241 94.1608 16.6763C94.1608 16.7136 94.1608 16.751 94.1608 16.7883C94.1608 16.8257 94.1585 16.8513 94.1538 16.8653H91.0305C91.0445 17.0614 91.0888 17.2435 91.1635 17.4116C91.2429 17.575 91.3433 17.7174 91.4647 17.8388C91.586 17.9602 91.7238 18.0559 91.8778 18.1259C92.0366 18.1913 92.2046 18.2239 92.3821 18.2239C92.4988 18.2239 92.6155 18.2076 92.7322 18.1749C92.8489 18.1422 92.9563 18.0979 93.0543 18.0419C93.1524 17.9858 93.2411 17.9181 93.3205 17.8388C93.3998 17.7547 93.4605 17.6637 93.5025 17.5656L93.9157 17.6777C93.8597 17.8131 93.7803 17.9368 93.6776 18.0489C93.5749 18.1562 93.4559 18.2519 93.3205 18.336C93.1851 18.4154 93.0357 18.476 92.8723 18.5181C92.7089 18.5648 92.5385 18.5881 92.361 18.5881ZM93.7056 16.5012C93.6916 16.3051 93.6449 16.1277 93.5656 15.9689C93.4909 15.8055 93.3928 15.6655 93.2714 15.5488C93.1547 15.432 93.017 15.341 92.8583 15.2756C92.7042 15.2103 92.5385 15.1776 92.361 15.1776C92.1836 15.1776 92.0156 15.2103 91.8568 15.2756C91.6981 15.341 91.558 15.432 91.4366 15.5488C91.3199 15.6655 91.2242 15.8055 91.1495 15.9689C91.0795 16.1324 91.0375 16.3098 91.0235 16.5012H93.7056ZM94.387 18.1049H94.597C94.6998 18.0815 94.7885 18.0302 94.8632 17.9508C94.9425 17.8668 95.0126 17.7407 95.0733 17.5727C95.134 17.3999 95.1876 17.1758 95.2343 16.9004C95.281 16.6202 95.33 16.2724 95.3814 15.8569L95.4934 14.8695H97.6294V18.1049H98.0776V19.6456H97.6574V18.5181H94.7861V19.6456H94.387V18.1049ZM97.1672 18.1049V15.2476H95.9346L95.8296 16.06C95.7502 16.6389 95.6639 17.0918 95.5705 17.4186C95.4818 17.7454 95.3744 17.9742 95.2483 18.1049H97.1672ZM99.3042 17.8458L101.482 14.8695H101.867V18.5181H101.398V15.5978L99.2621 18.5181H98.8349V14.8695H99.3042V17.8458ZM104.297 18.5181H103.835V15.2826H102.553V14.8695H105.578V15.2826H104.297V18.5181ZM106.255 14.8695H106.724V16.165H107.516C107.684 16.165 107.843 16.1907 107.992 16.2421C108.141 16.2934 108.272 16.3681 108.384 16.4662C108.496 16.5642 108.585 16.6879 108.65 16.8373C108.716 16.9821 108.748 17.1501 108.748 17.3416C108.748 17.533 108.716 17.7034 108.65 17.8528C108.585 17.9975 108.496 18.1189 108.384 18.2169C108.272 18.315 108.141 18.3897 107.992 18.441C107.843 18.4924 107.684 18.5181 107.516 18.5181H106.255V14.8695ZM109.203 14.8695H109.666V18.5181H109.203V14.8695ZM107.516 18.1119C107.759 18.1119 107.945 18.0442 108.076 17.9088C108.211 17.7687 108.279 17.5797 108.279 17.3416C108.279 17.1034 108.211 16.9167 108.076 16.7813C107.941 16.6412 107.754 16.5712 107.516 16.5712H106.724V18.1119H107.516Z" fill="black"/>
</svg>
